<svg xmlns="http://www.w3.org/2000/svg" width="860" height="776" viewBox="0 0 8600 7760"><g fill="rgb(251,245,247)"><g><path d="M3210 7529 c0 -2 11 -35 25 -73 13 -39 23 -71 22 -71 -1 -1 -32 -27 -68 -57 -61 -52 -67 -55 -90 -42 -58 30 -150 55 -178 49 -34 -7 -95 -61 -86 -75 4 -6 -1 -10 -9 -10 -9 0 -16 -7 -16 -16 0 -13 -6 -15 -27 -9 -16 4 -165 8 -333 10 -354 5 -376 7 -454 45 -54 25 -62 27 -81 14 -12 -8 -37 -13 -55 -12 -20 1 -35 -3 -38 -10 -2 -6 -11 -12 -21 -12 -9 0 -22 -5 -29 -12 -9 -9 -17 -5 -34 18 -48 63 -127 124 -160 124 -5 0 -21 -9 -37 -20 -22 -17 -32 -19 -53 -11 -21 8 -29 6 -47 -13 -11 -12 -21 -29 -21 -37 0 -18 -44 -62 -52 -53 -4 3 -19 -3 -34 -13 -32 -21 -133 -22 -218 -3 -46 10 -51 9 -90 -17 -67 -46 -136 -117 -136 -141 0 -12 9 -31 20 -42 17 -17 22 -18 52 -6 18 8 69 19 113 25 44 7 103 16 130 21 125 24 1056 69 1438 70 l197 0 0 30 0 30 445 0 445 0 0 26 0 27 398 -6 c218 -4 474 -3 567 1 l170 7 3 31 c3 35 1 36 -92 50 -36 5 -50 12 -54 26 -4 16 -11 19 -41 15 -30 -3 -43 2 -79 30 -36 30 -48 34 -75 29 -18 -4 -70 -8 -117 -10 -47 -2 -92 -5 -100 -9 -35 -13 -80 -15 -145 -6 -39 5 -113 13 -165 19 -52 5 -123 13 -157 16 -53 6 -63 4 -63 -9 0 -8 12 -18 26 -21 17 -5 24 -12 20 -21 -3 -9 1 -15 9 -15 21 0 19 -18 -2 -24 -10 -3 -40 -7 -66 -10 -26 -3 -57 -11 -69 -17 -28 -15 -65 -6 -128 31 -29 17 -58 29 -65 26 -7 -2 -25 8 -40 24 -19 20 -40 29 -77 34 -37 5 -57 14 -76 36 -16 17 -42 31 -64 35 -21 4 -38 6 -38 4z"></path><path d="M7020 6979 c-351 -18 -500 -29 -525 -39 -14 -5 -46 -10 -71 -10 l-44 0 0 -39 0 -40 198 6 c290 8 712 -5 712 -23 0 -8 10 -14 26 -14 16 0 23 -4 18 -11 -8 -13 79 -104 119 -125 28 -15 59 -11 122 16 32 13 92 19 101 10 5 -5 41 -27 81 -48 l71 -39 6 27 c3 15 12 35 21 43 19 19 20 95 1 120 -19 25 -96 23 -129 -3 -14 -11 -31 -20 -39 -20 -30 0 -93 29 -106 49 -13 19 -12 22 9 30 l24 9 -28 11 c-16 6 -32 11 -36 11 -5 0 -14 6 -20 14 -6 7 -26 17 -44 21 l-32 7 28 11 c15 6 27 17 27 24 0 15 -233 16 -490 2z"></path><path d="M4693 6863 c-37 -5 -40 -10 -16 -28 15 -11 13 -15 -18 -44 -32 -30 -43 -32 -81 -16 -11 4 -18 0 -23 -14 -4 -15 -15 -21 -36 -21 -43 0 -39 -32 9 -54 59 -28 153 -99 240 -181 60 -56 87 -75 108 -75 15 0 44 -5 63 -11 20 -6 52 -16 71 -21 19 -6 57 -21 85 -33 l50 -21 -60 -20 c-59 -19 -60 -19 -63 -60 -3 -39 0 -43 72 -107 54 -49 82 -67 102 -67 22 0 25 3 16 12 -21 21 -14 48 11 48 16 0 51 25 101 73 72 66 77 74 68 97 -11 29 -9 75 10 175 11 60 16 70 36 73 16 2 22 10 22 27 0 41 -31 34 -90 -22 -30 -29 -75 -60 -99 -70 l-44 -17 -71 77 c-39 42 -75 77 -81 77 -5 0 -16 4 -24 9 -11 7 -10 13 4 34 20 31 22 96 4 125 -11 17 -24 22 -56 22 -31 0 -43 -4 -43 -14 0 -27 -36 -27 -81 -1 -25 14 -36 25 -26 25 9 0 17 7 17 15 0 12 -14 15 -72 13 -40 0 -88 -3 -105 -5z"></path><path d="M7330 6500 c-8 -5 -26 -10 -40 -10 -42 0 -119 -44 -145 -82 l-24 -35 52 -7 c29 -3 66 -6 84 -6 38 0 99 -37 107 -65 3 -11 6 -32 6 -47 0 -21 5 -28 20 -28 16 0 20 -7 20 -36 l0 -36 51 56 c55 60 76 67 105 35 15 -17 16 -23 5 -41 -11 -17 -10 -22 1 -29 7 -5 18 -9 24 -9 6 0 21 -11 34 -25 16 -17 34 -25 56 -25 l32 0 -19 39 c-15 32 -41 58 -108 108 -3 2 1 9 7 15 21 21 13 68 -20 124 -35 57 -41 60 -84 44 -25 -10 -31 -7 -69 30 -41 40 -67 48 -95 30z"></path><path d="M4114 6433 c-52 -61 -64 -73 -74 -73 -5 0 -22 -12 -40 -26 -23 -20 -38 -25 -60 -20 -37 7 -62 -23 -53 -66 4 -21 0 -37 -14 -56 -11 -15 -23 -39 -27 -54 -6 -27 -5 -28 38 -28 38 0 48 -5 75 -35 17 -20 31 -40 31 -45 0 -6 14 -10 31 -10 24 0 39 9 63 37 17 20 52 57 79 83 55 56 62 97 25 138 -21 21 -23 33 -21 113 1 49 -1 89 -5 89 -5 0 -26 -21 -48 -47z"></path><path d="M5496 6414 c-41 -75 -48 -98 -41 -134 4 -19 8 -46 9 -60 2 -14 4 -32 4 -41 3 -23 79 -69 117 -69 17 0 52 3 77 6 56 8 72 32 89 129 16 95 28 123 51 117 10 -2 18 -8 18 -13 0 -5 5 -9 10 -9 13 0 13 46 0 71 -14 26 -60 26 -53 0 6 -24 -59 -79 -105 -87 -31 -6 -39 -2 -97 56 l-63 62 -16 -28z"></path><path d="M3474 6096 c-3 -9 -10 -13 -15 -10 -5 2 -18 0 -29 -6 -17 -9 -19 -17 -14 -51 6 -35 4 -41 -14 -46 -22 -5 -36 -29 -26 -44 3 -5 -4 -10 -15 -10 -12 -1 -31 -2 -42 -3 -12 0 -31 -13 -42 -28 -19 -25 -21 -44 -14 -133 2 -24 -2 -31 -20 -33 -12 -2 -51 -38 -90 -82 -47 -55 -75 -79 -90 -80 -13 0 -23 -3 -23 -6 0 -4 25 -37 55 -74 30 -37 55 -71 55 -75 0 -15 -35 -34 -62 -35 -23 0 -28 -4 -28 -26 0 -21 -4 -25 -20 -21 -33 8 -25 -30 15 -75 20 -21 45 -59 57 -83 12 -25 28 -45 35 -45 9 0 13 -15 13 -47 0 -27 9 -100 20 -163 11 -63 20 -118 20 -122 0 -5 17 -8 38 -8 29 0 48 8 78 34 36 31 42 43 57 113 31 145 19 214 -73 398 -66 134 -66 134 -17 231 31 61 97 108 177 127 37 8 57 19 68 37 23 36 64 69 86 70 10 0 32 12 50 28 29 25 30 29 20 62 -6 19 -22 41 -35 49 -13 8 -44 33 -68 55 -36 32 -45 46 -45 75 -1 32 -4 36 -29 39 -17 2 -29 -2 -33 -12z"></path><path d="M1325 6001 c3 -11 2 -21 -3 -21 -5 0 -39 -20 -76 -45 l-67 -45 -37 19 c-32 16 -53 19 -142 15 -77 -4 -109 -9 -122 -21 -17 -15 -18 -15 -18 1 0 23 -36 4 -45 -25 -5 -16 2 -28 35 -56 30 -26 40 -41 37 -55 -4 -14 -1 -18 9 -14 8 3 35 -10 60 -29 25 -19 49 -35 53 -35 23 0 196 149 197 170 2 35 5 41 14 35 18 -11 60 7 60 25 0 14 9 20 33 22 29 3 32 6 32 37 0 20 -6 36 -14 39 -9 3 -11 -1 -6 -17z"></path><path d="M5593 5842 c-22 -3 -31 -30 -16 -46 12 -12 33 -80 33 -108 0 -16 4 -28 9 -28 13 0 71 -87 71 -106 0 -10 -13 -14 -50 -14 -36 0 -50 -4 -50 -14 0 -8 -7 -16 -15 -20 -10 -4 -15 -19 -15 -48 l0 -43 101 -55 c55 -30 113 -69 130 -86 27 -28 115 -211 106 -220 -2 -2 -37 9 -77 26 -40 16 -90 30 -111 30 -37 0 -39 -1 -39 -33 0 -23 14 -52 49 -100 27 -37 57 -87 66 -111 20 -51 12 -72 -35 -106 -25 -18 -30 -28 -30 -61 0 -38 1 -39 34 -39 19 0 47 5 62 10 l27 11 -5 -45 c-3 -27 -19 -66 -38 -96 l-32 -50 -64 6 -64 7 0 -41 c0 -38 3 -42 53 -70 30 -17 66 -44 80 -61 30 -36 72 -43 62 -11 -5 17 -2 20 23 20 17 0 32 -6 35 -12 3 -9 11 -4 25 12 12 16 40 31 71 40 55 15 61 26 36 70 -8 14 -14 42 -15 63 0 39 -7 52 -82 142 l-37 45 30 53 c56 94 111 137 150 117 46 -25 68 64 34 131 -12 23 -11 31 16 79 29 54 27 80 -8 80 -40 0 -113 95 -113 149 0 11 -4 22 -9 25 -5 3 -12 18 -16 33 -9 37 -33 63 -59 63 -12 0 -43 20 -70 44 -41 38 -46 47 -37 64 16 31 14 112 -3 112 -16 0 -37 42 -57 113 -13 47 -15 48 -45 42 -24 -4 -39 0 -60 18 -17 13 -39 21 -51 19z"></path><path d="M4305 5770 c7 -23 6 -23 -83 -11 -37 6 -75 6 -94 0 -24 -6 -38 -5 -55 6 -12 8 -30 15 -39 15 -21 0 -114 -50 -114 -62 0 -5 -11 -25 -25 -45 -16 -25 -22 -45 -19 -60 7 -25 -5 -30 -24 -11 -9 9 -12 4 -12 -25 0 -31 5 -40 33 -57 19 -12 50 -20 77 -20 41 0 50 5 90 46 58 59 123 100 182 114 44 11 51 10 94 -14 26 -14 62 -26 80 -26 31 0 34 2 34 31 0 22 -12 44 -40 76 -22 25 -40 50 -40 54 0 5 -12 9 -26 9 -21 0 -24 -4 -19 -20z"></path><path d="M7700 5501 c0 -11 -9 -21 -22 -25 -40 -11 -98 -73 -98 -105 0 -16 -5 -31 -11 -33 -23 -8 -27 -74 -8 -128 10 -29 21 -55 23 -57 14 -15 76 16 135 68 82 71 94 104 61 170 -12 23 -22 61 -23 85 -2 41 -4 44 -29 44 -21 0 -28 -5 -28 -19z"></path><path d="M2564 5405 c-41 -41 -74 -82 -74 -92 0 -9 -7 -24 -16 -34 -11 -12 -13 -23 -6 -35 13 -23 155 -23 200 0 42 21 42 21 42 -19 0 -50 29 -47 58 8 24 46 31 100 10 79 -7 -7 -17 -12 -23 -12 -17 0 -86 109 -92 146 -3 19 -10 34 -16 34 -5 0 -43 -34 -83 -75z"></path><path d="M6850 5364 c0 -14 13 -26 45 -42 25 -12 45 -25 45 -30 0 -9 122 -92 135 -92 25 0 73 -53 94 -106 13 -33 30 -66 36 -74 7 -8 32 -52 55 -97 31 -61 48 -83 62 -83 11 0 18 5 15 13 -2 6 0 26 5 42 16 56 30 160 29 205 -2 42 -7 50 -74 117 -70 70 -75 73 -167 99 -52 15 -109 38 -125 50 -26 19 -42 23 -93 21 -55 -2 -62 -4 -62 -23z"></path><path d="M6668 5348 c7 -9 10 -37 7 -72 -3 -44 1 -68 15 -97 11 -21 22 -51 24 -66 6 -47 23 -79 56 -104 17 -13 45 -35 63 -49 50 -40 132 -80 162 -80 16 0 43 -11 62 -26 l33 -25 0 34 c0 19 -7 40 -15 47 -9 7 -34 48 -56 92 -55 104 -285 351 -332 356 -25 3 -29 1 -19 -10z"></path><path d="M932 5166 c-18 -7 -60 -37 -94 -67 -34 -30 -79 -66 -100 -80 -47 -32 -62 -52 -76 -102 -11 -38 -10 -38 39 -74 27 -21 49 -45 49 -55 0 -31 37 -20 69 21 23 29 31 49 31 79 0 31 8 50 40 90 39 48 44 51 93 54 40 2 53 7 55 21 2 10 -2 16 -10 15 -7 -2 -11 3 -8 12 9 31 3 82 -11 91 -18 11 -35 10 -77 -5z"></path><path d="M1177 4963 c-30 -65 -72 -159 -92 -210 -35 -88 -40 -95 -151 -203 -88 -86 -114 -117 -114 -138 0 -20 3 -23 12 -14 7 7 25 12 41 12 17 0 43 12 67 33 21 17 83 55 137 83 l98 51 11 54 c7 30 46 126 88 214 42 88 76 168 76 178 0 21 -18 23 -26 2 -4 -8 -11 -15 -16 -15 -15 0 -37 32 -38 53 0 10 -8 17 -18 17 -14 0 -33 -30 -75 -117z"></path><path d="M2443 4958 c12 -60 26 -101 39 -115 11 -12 22 -40 25 -65 4 -40 1 -47 -46 -103 -28 -32 -51 -67 -51 -77 0 -26 -25 -33 -52 -14 -33 23 -53 20 -82 -15 -22 -26 -29 -29 -41 -19 -12 10 -15 9 -15 -9 0 -11 -4 -21 -10 -21 -5 0 -10 -7 -10 -15 0 -8 -9 -24 -20 -35 -11 -11 -20 -26 -20 -33 0 -7 -11 -29 -25 -49 -14 -20 -25 -51 -25 -67 0 -17 -4 -31 -10 -31 -5 0 -10 -11 -10 -25 0 -20 5 -25 25 -25 26 0 78 22 105 45 29 24 111 4 163 -40 31 -26 44 -42 37 -49 -14 -14 -12 -68 4 -89 12 -16 17 -16 34 -6 32 20 73 -2 70 -38 -4 -56 2 -83 17 -83 20 0 20 85 0 120 -20 35 -18 63 7 95 21 27 21 28 3 41 -22 16 -54 18 -88 5 -21 -8 -29 -5 -55 22 -16 18 -42 57 -57 87 -15 30 -33 62 -40 70 -28 32 -7 67 62 106 l65 36 29 -28 c16 -15 29 -36 29 -46 0 -12 7 -18 24 -18 13 0 29 -7 36 -15 7 -9 29 -15 51 -15 32 0 39 3 39 20 0 11 -7 20 -15 20 -16 0 -14 23 6 78 5 13 9 43 9 68 0 42 -1 44 -31 44 l-30 0 18 31 c10 17 42 52 70 77 29 25 56 54 59 65 8 27 -17 187 -30 187 -6 0 -17 -14 -25 -31 -10 -22 -18 -28 -30 -23 -9 3 -35 10 -58 15 -59 12 -142 40 -149 50 -17 28 -18 -2 -1 -83z"></path><path d="M1995 4150 c-22 -28 -47 -52 -56 -55 -24 -8 -43 -77 -36 -133 10 -87 0 -100 -55 -77 -29 11 -22 -22 8 -41 22 -15 31 -15 82 -4 83 20 82 20 82 4 0 -28 27 -13 92 52 75 73 87 97 64 123 -9 10 -16 26 -16 37 0 22 -97 144 -114 144 -6 -1 -29 -23 -51 -50z"></path><path d="M1141 4056 c-23 -40 -57 -109 -75 -152 -64 -150 -97 -219 -121 -250 -13 -16 -25 -43 -27 -59 -4 -41 -46 -82 -90 -90 -36 -7 -36 -8 -42 -63 -10 -112 -15 -141 -25 -161 -6 -11 -11 -29 -11 -40 0 -37 -45 -23 -108 33 -44 41 -40 23 8 -31 45 -51 47 -59 24 -85 -15 -16 -15 -22 -3 -55 8 -20 19 -38 24 -40 6 -1 21 13 34 32 25 38 57 53 74 36 6 -6 29 -11 50 -11 35 0 38 2 26 16 -7 9 -19 33 -26 53 -12 34 -11 37 17 66 15 16 32 47 35 68 4 20 22 57 41 81 30 39 38 44 84 48 30 3 63 14 80 27 23 17 38 20 67 15 32 -5 43 -2 67 21 25 23 28 31 23 69 -6 40 -3 47 43 105 59 73 64 89 13 39 -21 -20 -57 -44 -81 -53 l-42 -17 -23 28 c-32 41 -36 52 -36 130 -1 66 1 74 28 103 20 21 38 31 59 31 28 0 29 1 22 38 -3 20 -12 48 -19 61 -7 13 -11 36 -9 52 4 24 1 29 -17 29 -16 0 -32 -18 -64 -74z"></path><path d="M6005 4120 c-4 -6 -11 -8 -16 -5 -5 4 -20 -6 -34 -21 l-26 -28 -6 23 c-3 13 -12 21 -22 19 -23 -4 -29 -98 -7 -98 9 0 16 6 16 13 0 15 30 32 69 41 20 4 32 -4 65 -41 23 -26 54 -64 69 -85 l29 -38 -51 -59 c-74 -85 -74 -85 -113 -66 -45 24 -98 75 -98 97 0 23 -36 24 -44 1 -4 -9 -4 -47 0 -84 3 -37 4 -79 0 -93 -6 -23 -11 -25 -69 -28 l-62 -3 -3 -37 c-3 -30 3 -46 27 -75 17 -21 41 -64 55 -95 25 -57 27 -58 66 -58 27 0 43 -5 46 -15 4 -8 16 -15 28 -15 18 0 22 6 23 38 2 60 9 77 31 80 17 3 22 -2 22 -20 0 -14 12 -31 31 -45 38 -26 57 -18 89 39 25 44 46 48 105 18 36 -18 40 -19 57 -3 10 9 18 21 18 28 0 6 11 22 25 35 14 13 25 31 25 41 0 23 24 41 44 33 30 -11 18 42 -22 100 -49 70 -93 106 -127 106 -22 0 -26 3 -20 18 34 82 31 88 -49 129 -96 49 -127 74 -126 102 4 50 0 61 -19 61 -11 0 -23 -5 -26 -10z"></path><path d="M5980 3157 c0 -22 -3 -23 -53 -19 l-53 4 -12 -93 c-7 -52 -17 -124 -22 -162 -15 -101 -13 -157 5 -157 8 0 15 5 15 11 0 15 112 119 128 119 22 0 42 32 32 50 -5 9 -5 23 1 31 13 21 12 26 -15 52 -36 36 -40 60 -13 72 25 12 31 33 22 81 -7 39 -35 48 -35 11z"></path><path d="M6470 2774 c-21 -19 -42 -45 -46 -57 -4 -12 -14 -33 -23 -46 -19 -29 -16 -56 10 -92 20 -28 49 -30 96 -7 18 9 27 8 42 -6 18 -17 20 -17 40 3 26 26 92 29 116 4 14 -14 18 -14 26 -2 5 8 9 30 9 49 0 31 -8 44 -57 91 -121 115 -147 122 -213 63z"></path><path d="M5837 2604 c-19 -20 -6 -82 29 -130 34 -47 35 -52 28 -104 -4 -30 -7 -77 -8 -104 -1 -49 0 -51 49 -88 28 -21 131 -79 230 -129 99 -50 184 -95 190 -100 5 -5 -11 -9 -43 -9 l-52 0 0 -34 c0 -21 15 -59 40 -102 55 -95 70 -145 94 -324 20 -145 23 -155 44 -158 18 -3 22 -10 22 -43 0 -28 4 -39 15 -39 8 0 15 7 15 15 0 8 7 15 16 15 12 0 15 6 10 26 -5 19 0 34 22 62 16 20 37 51 46 67 9 17 26 42 38 58 22 27 22 28 4 60 -10 17 -42 57 -70 87 -50 52 -113 140 -101 140 3 0 17 -7 30 -16 14 -9 25 -12 25 -8 0 5 7 1 14 -9 8 -10 12 -26 9 -36 -5 -21 39 -61 67 -61 18 0 57 82 51 109 -1 7 -21 40 -43 73 -34 50 -40 64 -35 95 5 27 1 43 -15 66 -12 17 -21 43 -20 58 1 15 -9 54 -23 86 -15 33 -24 67 -21 79 4 14 1 24 -8 27 -8 3 -16 16 -18 29 -2 17 -14 26 -50 38 -41 13 -48 19 -48 41 0 25 -3 27 -67 31 -39 3 -86 14 -111 26 -24 11 -56 24 -72 27 -30 7 -35 20 -31 81 1 13 -11 32 -30 48 -28 24 -39 27 -76 22 -29 -3 -45 -1 -50 8 -9 15 -85 31 -96 20z"></path><path d="M2476 2505 c-3 -8 -16 -15 -29 -15 -24 0 -57 -27 -57 -48 0 -6 -7 -15 -15 -19 -17 -10 -75 -191 -75 -234 0 -35 8 -36 39 -4 15 16 34 25 53 25 17 0 46 9 64 21 21 13 51 21 77 21 41 0 43 1 39 27 -2 18 3 33 17 45 12 11 21 25 21 32 0 7 18 35 40 63 43 55 38 78 -11 42 -15 -11 -35 -21 -44 -21 -26 0 -85 50 -78 66 3 9 -2 14 -15 14 -11 0 -22 -7 -26 -15z"></path><path d="M3509 2459 c-25 -36 -52 -117 -42 -132 3 -5 5 -27 5 -48 -2 -34 2 -40 24 -45 14 -4 28 -4 31 0 4 3 14 -1 24 -10 13 -11 40 -17 93 -18 94 -3 105 3 79 40 -32 47 -33 49 -17 79 13 26 13 30 -3 39 -10 5 -38 29 -63 53 -38 39 -88 73 -104 73 -2 0 -14 -14 -27 -31z"></path><path d="M2178 1848 c-37 -112 -97 -293 -133 -403 -37 -110 -68 -201 -70 -203 -2 -2 -1 59 2 136 7 164 1 212 -27 212 -23 0 -50 -47 -50 -84 0 -14 -13 -47 -29 -73 -16 -27 -34 -73 -41 -103 -7 -30 -25 -71 -39 -90 -32 -43 -64 -100 -56 -100 3 0 1 -9 -5 -21 -9 -16 -8 -24 3 -37 8 -9 18 -27 21 -39 12 -38 29 -45 80 -32 36 9 49 9 61 -1 18 -15 29 -8 44 29 13 30 16 32 126 55 33 6 59 16 59 22 -1 5 -5 19 -8 30 -5 16 4 34 34 70 22 27 58 71 80 97 22 27 44 67 50 90 6 23 15 51 20 62 5 11 12 46 15 77 4 32 11 60 16 64 23 14 69 89 69 112 0 14 -16 44 -35 68 -22 26 -35 53 -35 71 0 15 -10 46 -21 68 -21 38 -25 53 -28 103 -1 14 -7 22 -19 22 -13 0 -31 -42 -84 -202z"></path><path d="M3280 1621 c0 -5 5 -13 10 -16 6 -4 2 -16 -10 -32 l-20 -26 20 -22 c11 -12 20 -26 20 -33 0 -16 48 -62 64 -62 17 0 136 126 136 143 0 18 -114 51 -151 43 -17 -3 -39 -1 -50 4 -12 7 -19 7 -19 1z"></path></g></g><g fill="rgb(252,233,224)"><g><path d="M6460 6809 c0 -24 19 -55 87 -137 48 -59 97 -128 110 -153 12 -26 40 -75 62 -109 22 -34 44 -79 47 -99 4 -20 10 -38 13 -41 13 -10 61 -99 61 -113 0 -8 6 -20 14 -26 24 -20 29 5 16 92 -13 83 -43 168 -120 334 -24 51 -40 98 -37 107 4 10 19 16 42 16 28 0 35 4 35 19 0 12 -9 20 -27 24 -16 3 -70 31 -122 61 -75 45 -102 56 -137 56 -42 0 -44 -1 -44 -31z"></path><path d="M6135 6541 c-51 -24 -92 -62 -101 -95 -4 -16 -10 -23 -18 -19 -6 4 -36 8 -66 9 -30 1 -72 7 -92 12 -36 9 -38 9 -38 -14 0 -13 4 -24 9 -24 5 0 30 -16 55 -35 26 -19 57 -35 71 -35 l25 0 -19 34 c-22 38 -18 50 12 35 10 -6 32 -8 48 -5 31 6 33 4 79 -61 30 -43 136 -133 156 -133 21 0 78 45 101 79 13 19 23 48 23 66 0 39 -43 107 -103 163 -52 47 -78 51 -142 23z"></path><path d="M2972 6500 c-41 -25 -90 -79 -98 -108 -4 -12 1 -38 11 -58 16 -34 16 -37 -2 -57 -32 -36 -46 -82 -33 -106 6 -12 17 -21 25 -21 7 0 23 -15 34 -32 12 -18 32 -45 45 -60 22 -24 28 -27 52 -18 15 6 33 9 41 6 7 -3 18 4 24 16 10 19 17 20 78 15 36 -3 76 -9 89 -13 16 -5 22 -2 22 9 0 12 -17 17 -74 22 -66 6 -75 10 -78 29 -2 12 -18 29 -40 41 -21 11 -38 26 -38 33 0 7 -14 12 -35 12 -30 0 -35 3 -35 24 0 14 5 28 10 31 6 3 10 18 10 33 0 18 10 35 31 53 21 17 33 36 34 55 1 16 5 41 9 55 5 19 3 31 -9 43 -21 21 -33 20 -73 -4z"></path><path d="M807 6233 c-3 -3 3 -23 13 -44 29 -55 26 -79 -7 -79 -40 0 -148 -129 -137 -162 15 -49 34 -66 82 -73 25 -4 52 -14 59 -23 12 -16 14 -15 31 7 11 14 17 33 14 47 -2 13 3 46 12 73 9 28 16 68 16 91 0 23 5 50 11 62 9 16 6 24 -13 45 -32 34 -74 64 -81 56z"></path><path d="M7564 6186 c-4 -10 4 -29 18 -49 14 -17 42 -64 62 -103 33 -64 44 -75 96 -103 74 -40 100 -41 100 -3 0 18 -20 51 -60 102 -33 41 -60 77 -60 80 0 3 -20 23 -45 43 -52 44 -101 58 -111 33z"></path><path d="M6512 6061 c-32 -10 -63 -27 -77 -43 -21 -24 -28 -27 -50 -18 -34 13 -38 13 -32 -4 8 -20 91 -128 117 -151 l21 -19 -6 29 c-4 17 -9 36 -11 44 -6 19 83 7 108 -16 17 -15 18 -15 18 5 0 12 3 22 7 22 3 0 39 -20 78 -45 69 -43 155 -123 155 -145 0 -18 45 -11 58 10 7 11 21 20 32 20 18 0 16 6 -18 53 -22 28 -43 70 -47 91 -8 45 -51 114 -92 146 -21 16 -35 20 -60 15 -18 -3 -42 -1 -53 5 -32 17 -92 18 -148 1z"></path><path d="M861 5009 c-47 -60 -61 -83 -52 -92 19 -19 13 -38 -26 -85 -41 -50 -43 -68 -24 -177 7 -38 12 -78 12 -88 0 -13 6 -17 22 -15 23 3 44 51 92 211 32 110 68 151 189 222 67 39 85 55 86 73 0 18 -4 21 -22 17 -13 -2 -57 -7 -99 -10 -60 -3 -80 -1 -89 10 -7 8 -15 15 -19 15 -3 0 -35 -36 -70 -81z"></path><path d="M6583 4465 c-21 -9 -56 -12 -106 -9 -87 5 -127 -6 -127 -36 0 -33 18 -61 74 -113 55 -52 106 -72 106 -42 0 9 17 37 39 61 50 57 84 155 53 154 -4 -1 -21 -7 -39 -15z"></path><path d="M2160 4018 c0 -8 -31 -46 -70 -84 -57 -57 -70 -75 -70 -101 0 -24 5 -33 23 -39 12 -4 29 -15 38 -25 9 -11 24 -19 33 -19 31 0 73 -29 84 -57 22 -59 22 -67 7 -121 -9 -30 -14 -56 -12 -58 9 -9 76 140 87 193 6 32 16 71 22 87 10 24 9 31 -7 42 -10 8 -35 14 -54 14 -20 0 -45 7 -55 15 -18 14 -19 20 -8 77 10 53 9 65 -3 77 -13 14 -15 13 -15 -1z"></path><path d="M4698 3499 c-75 -32 -155 -57 -220 -70 -190 -37 -173 -31 -176 -69 -2 -31 1 -37 27 -48 36 -16 179 -166 206 -216 17 -32 18 -40 6 -88 -7 -29 -15 -79 -18 -110 l-5 -57 80 -80 c79 -81 79 -81 131 -81 49 0 57 4 108 49 39 35 65 50 94 54 22 3 62 20 89 37 44 28 50 36 50 67 l0 35 -82 -3 c-52 -3 -83 0 -85 7 -2 6 10 30 27 55 37 55 39 103 5 142 -13 15 -31 27 -40 27 -20 0 -19 31 1 101 12 42 28 66 70 107 69 67 72 97 15 153 -37 37 -42 39 -102 39 -54 -1 -82 -8 -181 -51z"></path><path d="M2810 3370 c0 -5 4 -10 10 -10 15 0 40 -56 40 -89 0 -19 7 -34 18 -40 10 -5 24 -29 31 -53 17 -58 52 -116 95 -157 l36 -35 -26 -27 c-28 -29 -32 -55 -18 -117 6 -31 9 -33 36 -30 33 5 45 -6 28 -27 -10 -13 -8 -15 16 -15 16 0 38 7 49 16 18 13 20 13 26 -3 4 -10 4 -42 1 -70 -2 -29 -1 -53 3 -53 11 0 54 51 61 73 5 17 34 25 34 8 0 -9 46 -61 55 -61 3 0 5 20 5 45 0 35 -6 51 -31 80 -24 27 -29 39 -20 48 6 6 11 30 11 53 0 41 -1 42 -57 70 -83 40 -202 161 -242 246 -17 36 -38 69 -46 72 -8 3 -15 16 -15 29 0 13 -8 31 -18 40 -20 18 -82 23 -82 7z"></path><path d="M715 3143 c-41 -42 -42 -54 -12 -107 36 -65 103 -66 185 -5 13 10 30 15 38 12 18 -7 18 11 1 29 -7 7 -21 25 -31 40 -20 31 -86 68 -121 68 -15 0 -38 -14 -60 -37z"></path><path d="M2750 1797 c0 -8 -8 -21 -19 -31 -10 -9 -26 -34 -36 -56 -10 -22 -25 -40 -33 -40 -11 0 -6 -10 16 -33 18 -18 32 -43 32 -55 0 -12 4 -22 9 -22 18 0 102 -62 118 -86 21 -33 33 -30 33 9 0 25 7 39 30 55 34 26 41 62 11 62 -14 0 -23 11 -32 38 -6 20 -22 50 -35 65 -28 34 -30 49 -8 82 l16 25 -51 0 c-36 0 -51 -4 -51 -13z"></path><path d="M5350 1231 l0 -99 -65 6 c-54 4 -65 2 -65 -10 0 -18 96 -48 153 -48 20 0 37 -5 37 -10 0 -16 77 -90 93 -90 13 0 87 72 87 85 0 3 -9 23 -20 45 -23 46 -24 51 -7 49 90 -12 90 25 -2 69 -38 18 -87 49 -109 68 -27 23 -50 34 -71 34 l-31 0 0 -99z"></path></g></g><g fill="rgb(227,208,235)"><g><path d="M2013 7240 c-57 -5 -83 -13 -72 -25 3 -2 182 -7 398 -10 470 -8 592 -21 226 -26 l-250 -3 205 -7 c113 -3 322 -12 465 -18 256 -12 1696 -8 1716 5 12 7 11 71 -1 79 -12 7 -2597 12 -2687 5z"></path><path d="M1070 7011 c0 -6 8 -15 18 -19 29 -11 -32 -20 -156 -21 -89 -1 -124 3 -169 19 -44 15 -81 20 -163 19 -58 -1 -115 -4 -128 -8 -26 -7 -61 -56 -49 -68 13 -13 474 -18 752 -8 75 3 113 1 100 -5 -11 -5 -57 -9 -103 -9 -97 -1 -172 -17 -172 -37 0 -12 41 -14 233 -14 231 0 766 13 1095 26 l172 7 0 32 0 32 -122 6 c-66 4 -341 7 -610 7 -410 0 -488 2 -488 14 0 20 -21 26 -121 33 -65 4 -89 3 -89 -6z"></path><path d="M4119 6163 c-14 -16 -38 -45 -53 -66 -17 -23 -39 -40 -56 -44 -27 -5 -28 -7 -17 -32 23 -54 44 -69 93 -63 45 5 45 4 38 -22 -5 -20 -2 -26 10 -26 9 0 16 7 16 16 0 12 6 15 23 10 12 -3 30 -6 40 -6 9 0 17 -5 17 -10 0 -15 42 -70 53 -70 12 0 -2 171 -15 188 -6 7 -33 12 -64 12 l-53 0 10 32 c14 49 11 108 -4 108 -7 0 -24 -12 -38 -27z"></path><path d="M5370 5862 c0 -16 13 -53 30 -83 29 -55 100 -253 100 -282 0 -9 12 -29 26 -46 20 -24 34 -31 62 -31 34 1 36 2 18 15 -19 14 -16 45 4 45 5 0 10 7 10 15 0 11 12 15 50 15 44 0 50 3 56 24 3 14 3 34 -1 46 -9 29 -64 110 -75 110 -4 0 -6 9 -3 21 3 11 -2 37 -12 57 -10 20 -21 44 -25 52 -4 8 -22 18 -41 23 -19 5 -41 15 -50 23 -23 21 -29 17 -29 -16 0 -16 -5 -30 -10 -30 -15 0 -90 51 -90 61 0 5 -4 9 -10 9 -5 0 -10 -13 -10 -28z"></path><path d="M7200 5045 c0 -20 12 -63 26 -98 14 -34 34 -91 44 -127 l18 -65 -143 148 c-115 118 -148 147 -170 147 -14 0 -25 -3 -23 -7 54 -119 146 -245 227 -309 27 -22 97 -83 155 -137 115 -108 142 -118 140 -56 -1 23 -20 70 -56 135 -31 54 -66 128 -78 164 -31 89 -114 240 -132 240 -5 0 -8 -16 -8 -35z"></path><path d="M5673 4178 c-29 -10 -33 -15 -33 -47 1 -31 8 -42 54 -81 69 -57 123 -138 132 -196 5 -33 11 -44 25 -44 10 0 18 7 17 18 0 9 7 42 17 72 9 30 21 91 26 135 8 69 7 85 -8 117 l-18 38 -90 -1 c-49 -1 -105 -6 -122 -11z"></path><path d="M2457 2673 c-46 -80 -97 -227 -97 -282 0 -17 3 -31 6 -31 11 0 54 45 54 56 0 20 35 43 57 38 22 -6 34 21 78 180 l16 59 -31 28 c-17 16 -33 29 -35 29 -2 0 -23 -35 -48 -77z"></path><path d="M2065 2013 c-37 -65 -85 -147 -105 -183 -69 -121 -96 -180 -68 -152 18 18 24 15 38 -18 9 -22 9 -37 1 -62 -9 -24 -8 -33 1 -39 8 -5 14 -38 16 -83 4 -64 7 -76 22 -76 14 0 18 14 24 92 3 50 6 110 6 132 0 42 8 61 125 286 46 88 55 114 55 158 0 28 -4 52 -9 52 -5 0 -16 3 -24 6 -11 4 -34 -28 -82 -113z"></path></g></g><g fill="rgb(252,205,172)"><g><path d="M6438 7071 c-43 -14 -48 -19 -48 -47 l0 -31 238 -7 c130 -4 280 -11 332 -16 52 -5 182 -10 288 -10 164 0 192 2 192 15 0 8 -8 15 -17 16 -15 0 -15 1 2 8 11 5 184 12 385 15 201 4 373 10 384 13 13 4 15 8 6 16 -8 9 -162 12 -568 13 -348 0 -584 4 -629 11 -55 8 -98 8 -190 -3 -65 -8 -155 -17 -200 -21 l-83 -6 0 27 c0 31 -18 32 -92 7z"></path><path d="M3205 6806 c-17 -7 -62 -15 -101 -18 -39 -3 -76 -8 -83 -12 -6 -4 -11 -32 -11 -62 0 -48 2 -54 21 -54 12 0 45 14 74 30 45 26 57 29 80 20 l27 -10 -21 -36 c-26 -44 -26 -44 5 -44 59 0 124 86 124 163 0 37 0 37 -42 37 -24 -1 -57 -7 -73 -14z"></path><path d="M5771 6457 c-8 -10 -3 -25 19 -61 17 -26 43 -73 59 -104 16 -31 37 -64 47 -73 25 -22 160 -89 179 -89 84 0 -81 238 -214 308 -66 36 -74 37 -90 19z"></path><path d="M6506 5988 c30 -52 132 -170 168 -196 56 -40 144 -82 173 -82 83 0 -11 114 -170 209 -121 71 -188 98 -171 69z"></path><path d="M4182 3374 c-64 -32 -107 -80 -145 -164 -29 -62 -31 -73 -35 -223 l-4 -158 -54 -80 c-39 -57 -54 -90 -54 -114 0 -55 8 -65 51 -65 34 0 39 3 39 23 0 32 18 47 56 47 33 0 33 1 36 52 2 44 7 53 23 57 27 5 35 19 35 62 0 67 27 134 70 173 47 42 72 45 120 13 19 -13 64 -40 100 -59 36 -20 71 -46 78 -57 7 -12 22 -21 35 -21 18 0 22 6 24 33 0 17 8 61 17 97 19 81 12 113 -45 186 -52 68 -165 174 -185 174 -8 0 -12 5 -9 10 3 6 15 10 25 10 13 0 17 5 14 15 -11 27 -130 20 -192 -11z"></path><path d="M5788 1616 c-37 -24 -103 -58 -147 -76 l-81 -34 0 -38 0 -38 65 0 c61 0 66 -2 75 -26 6 -14 10 -41 10 -60 0 -41 17 -44 33 -5 l12 28 25 -28 c27 -33 50 -38 49 -11 -1 30 -24 130 -32 138 -9 10 24 33 48 34 11 0 32 -11 47 -25 15 -14 30 -25 34 -25 4 0 3 24 0 53 -4 28 -7 76 -6 105 l1 52 -33 0 c-22 0 -56 -15 -100 -44z"></path><path d="M2867 1567 c-34 -29 -37 -36 -31 -67 8 -40 49 -90 75 -90 29 0 39 25 41 106 3 78 3 79 -22 81 -16 2 -38 -9 -63 -30z"></path><path d="M3935 968 c-10 -18 -46 -68 -79 -111 -158 -203 -161 -207 -132 -207 15 0 64 56 110 125 14 22 46 69 71 103 43 63 71 122 57 122 -4 0 -16 -15 -27 -32z"></path></g></g><g fill="rgb(254,224,137)"><g><path d="M3312 4658 c-31 -31 -9 -115 48 -188 24 -31 27 -42 23 -90 -4 -50 -1 -60 31 -108 23 -35 36 -66 36 -87 0 -39 13 -51 65 -60 22 -4 54 -11 70 -15 17 -5 56 -14 87 -20 56 -11 57 -12 60 -47 3 -35 6 -38 49 -48 25 -7 94 -15 153 -19 126 -9 135 -3 136 77 l0 47 -65 0 c-62 0 -65 1 -65 24 0 32 -19 46 -117 83 -153 57 -274 146 -318 234 -14 26 -43 73 -65 105 -22 31 -42 72 -46 90 -6 30 -10 34 -38 34 -18 0 -37 -5 -44 -12z"></path><path d="M2793 3518 c-29 -32 -54 -84 -48 -100 3 -7 34 -31 68 -53 45 -29 62 -46 63 -63 1 -13 11 -32 23 -43 12 -12 33 -46 47 -77 32 -72 157 -197 237 -236 57 -29 67 -42 45 -64 -9 -9 -5 -12 20 -12 36 0 46 21 40 81 -2 26 -13 40 -48 66 -123 89 -253 234 -230 257 22 22 11 96 -21 144 -74 110 -151 149 -196 100z"></path><path d="M3745 2691 c-32 -51 -123 -113 -177 -120 l-41 -6 46 -50 c25 -27 66 -61 92 -75 l48 -24 32 37 c18 21 38 58 45 82 15 52 31 69 60 60 16 -5 20 -2 20 17 0 13 -4 28 -9 34 -5 5 -11 25 -13 44 -3 32 -6 35 -40 38 -34 3 -39 0 -63 -37z"></path><path d="M4813 1243 c-83 -7 -67 -27 49 -63 87 -26 493 -93 511 -83 4 2 7 35 7 74 0 61 -2 69 -19 69 -11 0 -21 -9 -24 -21 -5 -19 -10 -21 -49 -15 -24 4 -63 14 -88 23 -46 16 -275 25 -387 16z"></path></g></g><g fill="rgb(249,151,165)"><g><path d="M6620 6869 c0 -17 8 -19 68 -20 l67 0 -44 -18 c-24 -10 -52 -28 -62 -39 -9 -12 -22 -22 -28 -22 -51 0 85 -77 152 -86 64 -9 109 10 177 73 l60 55 31 -26 c40 -34 73 -33 142 4 31 17 72 30 91 30 18 0 55 10 81 21 35 15 77 23 151 27 220 11 76 18 -395 19 -480 2 -491 1 -491 -18z"></path><path d="M1047 4738 c-32 -28 -44 -31 -89 -29 -28 1 -70 -3 -93 -10 -37 -11 -43 -17 -67 -78 -44 -107 -78 -212 -78 -243 0 -63 83 -15 243 140 105 102 135 145 161 230 11 34 -30 28 -77 -10z"></path><path d="M1201 4268 c-38 -23 -57 -41 -68 -67 -8 -20 -23 -54 -33 -76 -40 -87 -136 -338 -161 -424 -20 -64 -27 -131 -14 -131 28 0 93 116 176 317 17 39 61 123 98 185 37 62 75 133 85 158 10 25 22 51 28 58 21 25 -56 11 -111 -20z"></path><path d="M6280 3782 c0 -15 106 -162 128 -178 26 -18 133 -56 140 -49 9 9 -9 54 -40 101 -28 41 -47 56 -118 91 -85 42 -110 50 -110 35z"></path><path d="M6406 1276 c-4 -63 -18 -163 -31 -223 -26 -114 -31 -163 -16 -163 17 0 21 -33 10 -93 -11 -62 -2 -117 20 -117 22 0 54 110 72 249 23 179 41 424 32 447 -5 14 -8 13 -24 -7 l-19 -24 -6 23 c-4 12 -12 22 -19 22 -8 0 -14 -34 -19 -114z"></path></g></g><g fill="rgb(252,185,113)"><g><path d="M3553 6960 c-28 -10 -77 -24 -108 -31 -55 -12 -59 -12 -75 9 -33 40 -66 29 -208 -65 -72 -49 -131 -94 -132 -100 0 -7 -7 -13 -16 -13 -9 0 -37 -17 -63 -39 -25 -21 -111 -81 -191 -133 -153 -100 -319 -237 -457 -378 -79 -81 -83 -87 -83 -130 0 -40 6 -51 49 -97 27 -29 53 -53 59 -53 5 0 17 11 25 23 8 13 44 59 78 103 55 69 107 131 276 333 32 39 235 197 337 263 45 29 57 53 21 44 -22 -6 -25 -3 -25 18 0 33 12 39 87 42 35 1 84 10 108 20 25 9 48 14 51 11 14 -13 -40 -99 -77 -124 -45 -30 -62 -70 -45 -104 15 -31 49 -35 99 -13 40 18 40 18 55 -4 18 -27 38 -28 77 -2 17 11 48 29 70 39 22 10 67 42 100 71 120 106 205 188 205 199 0 18 -71 12 -120 -9 l-45 -20 48 43 c43 38 48 47 45 77 -3 34 -4 35 -48 37 -25 1 -68 -6 -97 -17z"></path><path d="M1655 6890 c-11 -5 -46 -9 -78 -9 -74 -1 -185 -32 -234 -65 -21 -14 -50 -26 -65 -26 -31 0 -39 -25 -13 -44 14 -10 9 -28 -35 -143 -69 -181 -66 -234 15 -280 43 -25 97 -29 142 -12 19 7 29 7 31 0 7 -20 24 -12 78 35 47 39 54 50 54 82 0 23 -8 44 -22 59 l-22 23 38 39 c34 35 41 38 80 34 23 -3 61 1 85 9 39 13 180 116 211 153 12 14 17 12 47 -17 32 -31 38 -33 106 -33 64 0 81 5 150 39 73 36 77 40 77 71 0 38 -12 45 -77 45 -32 0 -62 -9 -103 -32 l-58 -31 -44 36 c-41 33 -51 37 -105 37 -54 0 -61 -2 -71 -25 -18 -39 -32 -30 -32 20 l0 45 -67 -1 c-38 0 -77 -4 -88 -9z"></path><path d="M3530 3636 c0 -25 4 -47 9 -51 6 -3 8 -27 5 -53 -5 -38 0 -59 25 -114 24 -52 31 -82 31 -128 l0 -60 34 0 c30 0 36 -4 50 -40 9 -22 16 -49 16 -60 0 -17 39 -140 65 -202 9 -23 73 -24 101 -3 10 8 26 15 35 15 20 0 29 20 29 66 0 33 -1 34 -40 34 l-39 0 -21 66 c-11 36 -20 74 -20 84 0 10 18 42 40 71 32 43 40 62 40 97 0 24 7 57 16 73 8 17 14 47 12 67 l-3 37 -53 3 c-60 3 -79 -7 -84 -45 -4 -38 -19 -38 -74 -1 -48 32 -49 34 -46 77 3 38 0 47 -29 77 -24 25 -42 34 -66 34 -32 0 -33 -1 -33 -44z"></path><path d="M3121 2833 c-58 -29 -81 -67 -81 -136 0 -68 16 -137 31 -137 14 0 71 65 97 112 22 42 27 81 16 136 -8 39 -22 44 -63 25z"></path><path d="M3248 2778 c11 -13 32 -59 46 -103 24 -74 74 -155 97 -155 5 0 30 19 55 42 l45 41 32 -31 c46 -45 87 -43 165 7 35 23 72 57 87 80 14 23 28 41 30 41 3 0 10 -10 15 -22 8 -20 9 -18 9 15 1 34 -1 37 -28 37 -15 0 -52 -5 -82 -10 -61 -12 -106 -1 -135 31 -17 18 -26 20 -86 14 -107 -11 -135 -8 -167 14 -17 12 -45 21 -67 21 l-37 0 21 -22z"></path><path d="M4160 1457 c0 -14 44 -154 60 -192 29 -69 82 -155 95 -155 6 0 18 15 27 33 21 42 128 167 143 167 7 0 20 -19 31 -42 10 -23 43 -66 72 -96 65 -67 80 -61 74 26 -5 67 8 84 40 55 l21 -18 -5 58 c-6 70 -23 86 -93 87 -206 3 -222 5 -262 33 -54 37 -86 47 -149 47 -30 0 -54 -1 -54 -3z"></path><path d="M5305 1380 c-11 -5 -33 -9 -48 -9 -47 -1 -276 -59 -369 -93 -61 -22 -88 -37 -88 -48 0 -14 20 -16 163 -16 131 0 171 -3 207 -17 25 -10 77 -20 117 -24 72 -6 73 -6 83 21 5 15 10 45 10 67 l0 41 41 -35 c49 -42 185 -111 205 -103 10 4 11 11 4 31 -7 19 -6 25 4 25 37 0 106 85 106 130 0 16 -6 20 -35 20 -24 0 -35 -5 -35 -15 0 -8 -4 -15 -10 -15 -5 0 -10 -6 -10 -14 0 -30 -69 -35 -140 -10 -25 9 -47 19 -50 23 -31 43 -105 63 -155 41z"></path></g></g><g fill="rgb(180,160,205)"><g><path d="M3600 7468 c0 -11 16 -17 58 -21 31 -4 91 -11 132 -17 41 -5 134 -15 205 -20 72 -6 177 -17 235 -25 58 -8 141 -17 185 -20 44 -3 98 -8 120 -11 35 -5 38 -4 25 9 -15 15 -96 27 -305 47 -55 6 -143 17 -195 25 -52 8 -158 19 -235 25 -77 6 -159 13 -182 16 -34 5 -43 3 -43 -8z"></path><path d="M4692 7338 c3 -8 36 -17 77 -23 79 -11 85 -24 12 -26 -25 -1 -36 -4 -23 -6 12 -2 22 -10 22 -18 0 -23 32 -28 190 -30 85 -2 176 -7 202 -13 43 -8 188 -5 188 5 0 2 -7 17 -15 32 -17 34 -22 35 -285 56 -107 9 -219 20 -249 25 -77 14 -124 13 -119 -2z"></path><path d="M3530 7281 l-175 -6 173 -8 c94 -5 172 -13 172 -18 0 -5 -175 -10 -412 -10 -227 -1 -505 -5 -618 -8 l-205 -6 140 -8 c77 -4 503 -6 947 -5 l808 3 6 28 c3 16 4 31 1 34 -8 7 -641 11 -837 4z"></path><path d="M2010 7164 c-316 -12 -782 -41 -810 -49 -8 -2 -62 -11 -120 -20 -125 -18 -170 -32 -170 -50 0 -18 49 -31 185 -50 151 -21 162 -24 144 -36 -7 -5 -54 -9 -103 -9 -49 0 -87 -2 -84 -5 3 -3 282 -6 619 -7 338 0 657 -3 709 -7 l95 -8 -103 -1 c-66 -1 -101 -6 -97 -12 3 -6 52 -10 111 -10 84 0 104 3 104 14 0 13 49 78 96 128 9 9 30 20 48 23 58 12 186 79 186 98 0 16 -18 17 -247 16 -137 -1 -390 -8 -563 -15z"></path><path d="M4587 6960 c-16 -23 -18 -23 -259 -27 -134 -2 -258 -6 -276 -9 -31 -5 -33 -7 -30 -42 l3 -36 325 -4 c179 -2 345 -3 370 -4 178 -2 651 3 723 8 73 6 87 9 87 24 0 18 -28 34 -100 57 -76 25 -273 42 -556 49 l-271 7 -16 -23z"></path></g></g><g fill="rgb(247,95,185)"><g><path d="M6515 5550 c-4 -6 -1 -19 7 -28 46 -59 208 -243 293 -333 55 -58 133 -140 173 -182 39 -42 74 -77 77 -77 3 0 5 63 5 140 0 87 4 140 10 140 26 0 4 29 -50 64 -33 22 -60 44 -60 49 0 4 -60 37 -132 72 -73 35 -157 80 -187 100 -46 32 -110 65 -125 65 -3 0 -8 -5 -11 -10z"></path><path d="M1447 4996 c-10 -22 -43 -104 -74 -181 -30 -77 -66 -166 -80 -198 -27 -65 -104 -263 -134 -346 -12 -34 -16 -58 -10 -64 6 -6 37 5 83 30 70 39 75 44 141 149 37 60 89 147 114 194 87 163 166 305 203 366 l36 60 -60 17 c-34 9 -92 16 -131 16 l-70 -1 -18 -42z"></path><path d="M5630 3383 c0 -29 8 -45 36 -74 22 -23 45 -63 61 -105 52 -145 56 -170 57 -366 l1 -186 27 -4 c16 -3 41 4 60 16 31 20 32 21 11 24 -21 3 -23 9 -23 60 0 31 5 75 11 97 6 22 11 51 10 65 -1 14 4 65 11 113 12 86 13 88 36 82 85 -21 82 -23 82 33 0 65 -17 145 -42 200 -28 58 -38 57 -52 -9 -4 -20 -13 -28 -36 -31 -25 -4 -40 5 -101 59 -62 54 -78 63 -111 63 -37 0 -38 -1 -38 -37z"></path><path d="M2438 2640 c-131 -207 -318 -525 -318 -540 0 -5 7 -10 15 -10 9 0 15 -9 15 -22 0 -22 -83 -200 -107 -229 -11 -13 -9 -25 11 -75 13 -32 32 -80 41 -107 9 -26 22 -47 29 -47 24 0 343 993 334 1039 -3 12 -8 10 -20 -9z"></path></g></g><g fill="rgb(245,140,123)"><g><path d="M4000 7013 c-47 -10 -95 -13 -171 -9 -135 8 -209 -7 -209 -40 0 -17 5 -21 19 -17 40 10 27 -15 -34 -70 -35 -31 -68 -57 -73 -57 -5 0 -21 -15 -36 -32 -34 -41 -18 -47 48 -18 26 11 58 20 71 20 12 0 44 10 71 21 28 13 49 18 51 12 2 -6 29 3 60 20 43 23 55 26 50 14 -9 -24 36 -22 71 3 15 11 65 33 111 49 76 27 93 29 168 24 l83 -6 0 35 c0 33 -3 36 -51 51 -62 20 -141 20 -229 0z"></path><path d="M3047 6915 l-188 -54 -75 -68 c-121 -110 -195 -172 -254 -213 -30 -21 -95 -79 -143 -129 -64 -66 -95 -91 -113 -91 -35 0 -30 -27 6 -35 29 -6 40 -28 20 -40 -23 -14 -7 -25 35 -25 25 0 45 -5 45 -11 0 -15 51 24 164 125 54 48 165 131 245 183 80 53 167 113 193 134 25 22 112 84 193 139 136 92 149 99 161 83 12 -16 13 -14 14 20 l0 37 -57 -1 c-39 0 -121 -18 -246 -54z"></path><path d="M1725 6642 c-23 -19 -87 -34 -98 -23 -24 24 -62 12 -108 -36 -78 -83 -77 -79 -33 -118 l39 -35 -57 -52 -58 -53 21 -45 c30 -67 55 -88 133 -111 93 -28 187 -22 252 16 25 15 43 32 41 38 -2 8 -33 13 -82 15 -69 3 -83 6 -115 32 -21 16 -43 44 -50 61 -12 27 -11 32 3 41 11 6 17 22 17 47 0 37 2 39 38 45 54 8 68 29 76 114 7 68 2 82 -19 64z"></path><path d="M2515 5878 c-15 -35 -65 -142 -110 -238 -115 -245 -197 -438 -193 -455 2 -10 28 10 75 56 63 62 77 82 104 153 17 44 45 110 61 146 18 39 33 94 38 136 5 39 21 112 35 163 15 51 25 94 22 97 -2 2 -17 -24 -32 -58z"></path><path d="M1850 5774 c-123 -142 -138 -164 -167 -232 l-14 -35 61 6 61 5 75 -74 c41 -41 78 -74 82 -74 13 1 163 214 256 364 l49 79 -28 21 c-29 21 -165 70 -220 80 -28 4 -38 -4 -155 -140z"></path><path d="M1340 5058 c-91 -194 -171 -380 -167 -392 6 -18 41 46 140 263 97 210 117 261 100 261 -6 0 -38 -60 -73 -132z"></path><path d="M1245 5136 c-39 -24 -115 -70 -170 -102 -169 -99 -198 -136 -241 -310 -21 -82 -12 -94 45 -65 33 17 51 20 94 15 49 -6 56 -4 97 28 25 18 50 45 57 58 38 76 193 413 191 416 -2 1 -35 -17 -73 -40z"></path><path d="M3420 4736 c0 -37 9 -34 -142 -52 -47 -6 -48 -7 -48 -40 0 -23 19 -72 56 -142 33 -63 52 -108 45 -110 -6 -2 -11 -20 -11 -39 0 -28 8 -44 39 -74 21 -22 46 -55 55 -74 14 -28 23 -35 46 -35 23 0 28 4 23 16 -4 10 2 17 16 21 22 6 21 7 -12 42 -19 20 -44 53 -57 74 -22 37 -22 39 -5 77 l17 38 -44 54 c-59 72 -76 114 -56 135 14 13 16 11 22 -20 3 -19 24 -60 46 -91 22 -32 52 -80 65 -107 14 -27 28 -49 31 -49 2 0 14 9 26 20 12 11 34 20 50 20 l28 0 0 75 c0 57 -3 75 -14 75 -14 0 -20 21 -32 119 -9 71 -39 101 -100 101 -43 0 -44 -1 -44 -34z"></path><path d="M2825 4570 c-34 -23 -43 -41 -44 -92 l-1 -38 -46 0 c-38 0 -45 -3 -42 -17 2 -10 13 -19 26 -21 26 -4 27 -11 7 -38 -8 -10 -15 -41 -15 -69 0 -60 38 -175 58 -175 9 0 12 -6 7 -17 -4 -10 -12 -46 -18 -81 -10 -58 -9 -67 11 -105 12 -23 22 -48 22 -56 0 -11 11 -12 53 -7 28 3 78 6 111 6 l58 -1 -5 38 c-8 54 -27 227 -33 301 -4 47 -11 68 -27 83 -21 19 -22 29 -21 165 l1 144 -36 0 c-20 0 -49 -9 -66 -20z"></path><path d="M3496 3708 c-3 -13 -6 -40 -6 -60 0 -34 -3 -38 -25 -38 -34 0 -43 -26 -51 -152 -6 -98 -5 -105 18 -138 17 -25 22 -42 17 -55 -12 -32 -10 -150 3 -163 18 -18 128 -16 128 2 0 23 13 26 52 14 20 -6 51 -8 71 -4 l34 6 -8 43 c-14 77 -28 97 -67 97 l-34 0 7 48 c5 42 2 58 -29 125 -30 67 -33 81 -25 112 8 29 7 42 -5 60 -26 40 -18 51 14 20 33 -31 38 -27 16 13 -8 15 -20 42 -26 60 -11 27 -17 32 -45 32 -25 0 -34 -5 -39 -22z"></path><path d="M3821 2134 c-99 -60 -207 -157 -235 -212 -17 -33 -17 -33 14 -60 37 -33 37 -38 3 -47 -47 -11 -104 -55 -119 -90 -18 -43 -17 -45 1 -45 9 0 39 18 67 41 29 23 54 36 56 31 2 -6 -7 -29 -18 -53 -50 -96 -80 -276 -80 -472 0 -127 16 -322 27 -336 2 -3 16 8 32 23 34 33 43 24 31 -30 -18 -81 -32 -216 -23 -225 26 -26 171 127 300 318 118 174 122 180 185 299 74 140 74 148 7 142 -35 -4 -55 -1 -64 8 -7 8 -27 14 -43 14 -30 0 -30 0 -36 -72 -14 -152 -53 -255 -157 -413 -50 -75 -53 -78 -60 -52 -13 49 -29 227 -29 327 0 88 -2 101 -21 119 -19 18 -21 26 -15 88 4 37 16 106 26 153 10 47 23 110 30 142 14 73 47 120 170 248 l101 104 -3 51 c-3 45 -5 50 -28 53 -16 1 -58 -18 -119 -54z"></path><path d="M5901 2043 c3 -88 3 -88 -30 -121 -29 -30 -32 -38 -27 -70 13 -76 12 -86 -14 -99 -14 -7 -59 -13 -103 -13 l-77 0 -25 -55 c-15 -35 -33 -59 -49 -67 -38 -17 -36 -65 5 -101 17 -15 35 -27 39 -27 17 0 160 69 202 98 69 46 67 46 61 3 -7 -50 13 -110 86 -253 32 -64 61 -122 63 -129 4 -11 10 -10 30 3 24 16 27 16 42 -1 9 -10 29 -53 45 -97 58 -157 111 -251 111 -196 0 11 -5 33 -10 48 -6 15 -8 29 -6 31 7 8 81 -153 106 -230 12 -38 26 -65 30 -60 11 12 40 150 39 187 0 17 -3 26 -6 19 -3 -10 -7 -10 -18 0 -7 7 -11 15 -9 19 2 3 -11 40 -29 80 -19 41 -44 105 -57 143 -16 48 -35 81 -59 106 -20 19 -47 55 -61 79 -14 23 -42 62 -62 85 -21 23 -38 48 -38 55 0 24 -49 118 -65 124 -8 3 -15 12 -15 20 0 8 -7 19 -16 24 -14 8 -15 19 -9 71 4 33 10 61 13 61 4 0 22 -9 40 -20 18 -11 50 -20 71 -20 46 0 51 11 51 108 0 62 0 62 -29 62 -16 0 -50 9 -75 20 -41 17 -46 23 -46 51 0 18 -7 59 -16 91 -16 56 -18 58 -51 58 l-35 0 3 -87z"></path></g></g><g fill="rgb(250,153,99)"><g><path d="M5278 6994 c-5 -4 -8 -22 -8 -41 0 -30 3 -33 29 -33 15 0 59 -11 97 -24 183 -64 275 -99 339 -130 95 -47 99 -48 177 -40 83 8 87 20 26 90 -29 32 -36 45 -23 40 11 -4 40 -15 65 -23 25 -9 70 -30 100 -48 102 -61 145 -84 216 -120 39 -19 105 -64 145 -100 41 -35 136 -118 212 -185 76 -66 142 -120 147 -120 28 0 -6 111 -58 193 -22 34 -50 83 -62 108 -11 25 -34 59 -50 74 l-30 29 0 -38 0 -37 -42 29 c-24 17 -54 42 -68 57 -35 38 -122 96 -227 151 -48 25 -111 59 -140 76 -49 27 -56 29 -127 22 -83 -7 -137 3 -220 43 -51 24 -152 32 -171 14 -9 -8 -109 -3 -262 14 -32 4 -61 3 -65 -1z"></path><path d="M655 6880 c-141 -4 -159 -6 -105 -12 36 -4 121 -10 190 -13 161 -6 259 -30 330 -79 53 -36 56 -37 132 -34 43 2 78 6 78 9 0 4 11 7 25 7 26 0 125 58 125 73 0 5 -19 9 -42 9 -28 0 -57 9 -83 25 -40 24 -42 24 -260 23 -121 -1 -296 -5 -390 -8z"></path><path d="M2311 6312 c-1 -14 -76 -102 -197 -231 -91 -98 -155 -181 -148 -192 3 -5 12 -9 20 -9 32 0 181 -55 212 -79 20 -14 36 -21 40 -15 55 78 112 164 112 167 0 3 -22 29 -50 58 -27 30 -50 61 -49 69 0 8 32 49 71 90 92 98 106 119 87 131 -8 5 -22 7 -31 4 -10 -3 -27 -8 -37 -11 -13 -4 -21 0 -24 13 -3 10 -5 12 -6 5z"></path><path d="M3698 4589 c-10 -5 -18 -20 -18 -32 0 -21 -4 -22 -65 -19 -42 3 -65 0 -65 -7 0 -6 6 -11 13 -11 7 0 12 -17 13 -45 1 -38 -1 -45 -16 -43 -25 4 -70 -23 -70 -43 0 -22 91 -104 163 -147 31 -19 94 -48 140 -65 97 -37 117 -51 114 -80 -2 -20 3 -22 66 -25 71 -3 83 -15 54 -54 -12 -14 -24 -15 -108 -8 -51 5 -107 13 -124 18 -41 12 -43 37 -6 53 41 19 39 29 -6 29 -21 1 -67 7 -103 15 -36 8 -90 20 -120 26 -43 8 -62 18 -88 46 -35 37 -77 52 -148 53 -57 0 -67 -16 -62 -92 2 -43 14 -84 35 -130 17 -37 26 -65 20 -63 -7 2 -32 9 -56 15 -37 10 -41 13 -26 24 12 8 16 24 13 56 -3 41 -5 45 -32 48 -50 6 -69 -5 -162 -91 -78 -72 -89 -87 -83 -105 9 -25 1 -27 -49 -13 -24 7 -40 6 -60 -5 -15 -7 -37 -14 -49 -14 -16 0 -23 -6 -23 -20 0 -11 5 -20 10 -20 23 0 9 -57 -20 -85 -36 -35 -30 -44 50 -85 85 -43 89 -53 38 -88 -24 -16 -52 -39 -62 -51 -19 -21 -19 -21 10 -21 35 -1 97 -54 143 -122 35 -52 38 -70 15 -89 -20 -17 -12 -52 28 -109 46 -66 116 -137 178 -180 92 -63 95 -72 39 -142 l-22 -27 27 -35 c15 -20 32 -36 37 -36 6 0 23 -8 37 -18 40 -27 94 -40 123 -30 13 5 38 7 55 5 17 -3 37 -1 45 3 9 6 20 3 31 -7 16 -14 18 -14 28 11 5 15 21 43 35 64 16 24 25 50 25 76 l0 39 -67 -6 c-38 -3 -76 -9 -85 -12 -15 -6 -17 1 -20 52 l-3 58 -58 7 c-139 18 -173 77 -132 235 8 31 15 76 15 100 0 42 -1 43 -69 82 l-68 40 4 48 c4 48 4 48 -38 72 l-43 24 45 23 c61 32 67 30 71 -18 3 -42 4 -43 40 -46 21 -2 64 6 98 19 59 21 60 22 60 61 0 21 -11 60 -24 87 l-25 48 34 33 c18 18 37 31 42 28 4 -2 32 -19 61 -37 39 -26 51 -39 46 -50 -4 -9 -9 -38 -11 -66 -3 -49 -2 -49 11 -21 12 27 14 28 20 10 3 -11 24 -38 46 -59 l40 -39 -22 -23 -22 -23 34 -35 c18 -19 56 -46 85 -61 47 -25 53 -26 80 -13 18 9 30 22 30 34 0 34 20 57 56 64 l34 7 11 89 c12 92 41 181 94 285 17 33 30 69 30 80 0 13 7 20 18 20 11 0 27 9 37 20 16 18 117 80 130 80 3 0 5 -20 5 -45 l0 -45 43 0 c46 0 59 8 163 91 119 97 154 144 154 206 0 42 -1 43 -33 43 -27 0 -39 -8 -72 -51 l-40 -50 -19 45 -20 46 -57 0 c-32 0 -79 -4 -106 -10 -147 -29 -150 -29 -196 0 -23 15 -89 79 -147 143 -101 113 -105 117 -145 117 -22 0 -48 -5 -57 -11z"></path><path d="M3823 3296 c-53 -69 -56 -90 -33 -181 29 -112 55 -146 88 -113 6 6 14 9 17 6 10 -9 -7 -38 -21 -38 -8 0 -26 -7 -40 -16 -23 -16 -26 -16 -39 2 -13 18 -14 16 -15 -18 0 -21 4 -38 9 -38 4 0 11 -26 14 -59 2 -32 11 -69 18 -82 7 -13 20 -44 29 -69 13 -40 19 -45 47 -48 28 -3 33 1 39 24 4 16 0 48 -10 79 -9 28 -16 61 -16 72 0 43 40 147 70 185 26 31 34 55 46 126 8 48 14 113 14 145 l0 57 -45 0 c-25 0 -62 -7 -82 -15 -44 -19 -43 -19 -43 5 0 30 -11 24 -47 -24z"></path><path d="M3888 2021 c-50 -8 -88 -43 -88 -81 0 -29 2 -30 42 -30 l42 0 -28 -29 c-31 -32 -44 -106 -32 -185 7 -43 9 -46 37 -46 17 0 43 7 59 15 36 19 35 25 19 -142 -11 -113 -8 -163 11 -163 6 0 10 12 10 26 0 23 1 24 16 10 22 -23 64 -31 85 -17 27 16 30 14 23 -16 -11 -43 17 -14 46 47 18 39 26 47 32 35 6 -9 23 -15 44 -15 41 0 84 -17 139 -55 36 -25 46 -27 104 -21 44 4 78 1 111 -10 34 -11 54 -13 67 -6 25 14 51 -7 59 -47 8 -38 43 -68 91 -77 26 -5 54 1 115 25 85 33 348 101 392 101 13 0 37 5 52 10 28 11 43 5 93 -39 13 -11 27 -21 30 -22 3 0 13 -2 21 -5 76 -20 128 -25 162 -14 22 6 38 17 38 25 0 8 5 15 10 15 6 0 10 8 10 17 0 13 3 14 12 5 7 -7 16 -12 20 -12 11 0 10 83 -2 114 -9 24 -14 26 -75 26 -72 0 -84 12 -30 30 l35 12 -41 38 c-40 37 -40 38 -18 45 22 7 22 8 -14 41 -30 28 -45 34 -80 34 -40 0 -48 -5 -97 -56 -29 -30 -53 -54 -54 -52 -23 50 -45 81 -79 107 -35 27 -49 31 -87 29 l-45 -3 -1 -65 c-1 -43 -8 -81 -22 -113 l-21 -48 -41 21 c-86 44 -151 92 -176 130 -24 36 -31 40 -70 40 -42 0 -43 0 -73 -62 -17 -33 -31 -67 -31 -74 0 -40 -56 -15 -125 55 -32 34 -46 41 -77 41 -24 0 -40 -6 -47 -17 -8 -15 -11 -15 -26 -3 -23 19 -42 58 -50 104 -4 20 -16 43 -26 49 -11 7 -19 19 -19 28 0 21 -67 43 -115 37 -42 -5 -58 12 -102 109 -49 108 -55 113 -131 112 -37 -1 -84 -5 -104 -8z"></path></g></g><g fill="rgb(139,140,205)"><g><path d="M4447 7281 c-111 -6 -120 -8 -139 -31 l-20 -25 23 -6 c13 -4 99 -7 191 -8 153 -1 197 -8 167 -27 -7 -4 -436 -8 -953 -9 l-941 -3 -55 -30 c-30 -17 -76 -36 -102 -42 -49 -13 -54 -16 -119 -94 -26 -31 -39 -56 -36 -68 4 -13 0 -18 -14 -18 -10 0 -19 -4 -19 -9 0 -7 326 -25 370 -20 8 1 31 1 51 1 34 -2 35 -3 31 -33 -4 -27 -2 -30 14 -25 134 40 382 106 400 106 13 0 28 -9 34 -20 20 -38 46 -43 127 -25 41 9 101 26 132 37 118 42 146 46 243 38 76 -6 110 -4 188 12 97 20 143 19 199 -5 30 -13 26 -14 -66 -13 -88 0 -106 -3 -179 -32 -123 -49 -131 -61 -233 -316 -4 -11 117 93 204 175 44 41 57 48 108 54 63 7 75 22 25 32 -66 13 6 22 192 22 225 1 350 10 347 25 -1 5 8 15 21 21 12 5 22 15 22 22 0 10 159 13 781 13 l781 0 60 -37 c33 -20 68 -47 78 -60 18 -23 23 -24 97 -17 110 10 139 26 36 20 -90 -6 -116 9 -30 17 28 3 86 9 127 15 138 20 471 34 922 41 245 3 449 9 452 12 7 7 -412 19 -684 19 -107 0 -238 5 -290 10 -52 5 -203 12 -335 16 -132 4 -233 9 -225 11 213 57 88 97 -430 137 -107 9 -317 17 -466 19 -149 2 -277 7 -284 12 -10 6 -9 11 5 21 10 8 16 16 13 19 -15 15 -195 35 -303 33 -79 -1 -128 2 -142 10 -23 12 -150 13 -376 3z"></path><path d="M7049 5239 c-11 -7 -13 -37 -11 -151 l3 -143 157 -157 c86 -87 160 -158 163 -158 4 0 0 19 -7 43 -7 23 -25 83 -40 132 -25 83 -63 188 -117 324 -21 53 -54 85 -108 108 -15 7 -32 8 -40 2z"></path><path d="M2042 1837 c-6 -7 -25 -42 -41 -77 -23 -48 -31 -80 -31 -120 0 -30 -5 -100 -11 -155 -23 -236 -36 -431 -29 -444 9 -17 46 77 145 372 l73 218 -18 47 c-10 26 -29 73 -41 105 -24 64 -32 73 -47 54z"></path></g></g><g fill="rgb(241,108,134)"><g><path d="M4443 7010 c-134 -3 -245 -9 -249 -13 -17 -17 65 -26 326 -37 417 -16 688 -30 750 -37 51 -6 54 -5 41 11 -14 17 -9 30 12 32 7 0 83 2 170 2 150 2 157 3 157 22 0 20 -7 20 -462 20 -255 0 -472 2 -483 4 -11 1 -129 0 -262 -4z"></path><path d="M6390 6878 c0 -31 4 -38 20 -38 13 0 20 -7 20 -18 0 -24 19 -42 46 -42 13 0 26 -4 29 -10 3 -5 11 -10 17 -10 6 0 1 11 -12 25 -35 37 -4 33 67 -10 68 -41 79 -42 103 -12 10 12 42 31 71 41 30 10 70 28 89 40 25 15 59 23 120 27 67 4 44 6 -110 10 -107 2 -250 4 -318 4 -98 0 -125 3 -132 15 -7 11 -10 5 -10 -22z"></path><path d="M1909 6794 c-13 -14 -60 -55 -104 -91 -90 -73 -107 -96 -99 -136 3 -15 1 -34 -6 -42 -17 -21 53 -63 124 -75 32 -5 74 -18 93 -30 19 -11 40 -20 47 -20 8 0 16 -9 19 -20 8 -32 19 -24 65 45 43 66 58 77 68 50 4 -8 11 -15 16 -15 12 0 88 83 106 116 7 13 26 31 42 39 27 14 30 20 30 65 0 31 -6 54 -16 64 -22 22 -93 20 -156 -5 -69 -27 -102 -20 -158 36 l-46 45 -25 -26z"></path><path d="M1723 5546 c-40 -9 -44 -13 -74 -80 -44 -97 -180 -417 -186 -438 -6 -22 33 -33 85 -24 22 3 57 -1 88 -11 29 -9 58 -13 66 -10 8 3 46 56 83 119 37 62 94 154 127 205 l59 92 -76 76 c-42 41 -79 75 -83 76 -34 4 -53 3 -89 -5z"></path><path d="M5280 5439 c0 -25 11 -40 52 -77 97 -88 146 -156 159 -222 11 -55 16 -63 59 -94 74 -53 130 -174 130 -281 0 -24 5 -35 15 -35 8 0 15 -2 15 -5 0 -13 -84 -173 -106 -202 -13 -17 -24 -45 -24 -61 0 -25 5 -30 31 -36 45 -9 89 -7 89 3 0 5 -7 11 -15 15 -34 13 -11 22 48 18 l64 -4 32 51 c25 38 35 69 43 126 13 101 9 110 -39 86 -52 -26 -83 -34 -83 -22 0 5 10 17 23 26 l22 17 -25 -8 c-23 -6 -22 -3 14 37 22 24 43 46 48 47 4 2 8 9 8 16 0 23 -58 130 -99 186 -23 30 -38 56 -33 58 4 1 41 -11 82 -28 40 -17 95 -37 123 -45 l49 -15 -7 27 c-15 62 -101 249 -128 280 -16 18 -75 58 -131 89 -55 31 -109 64 -118 72 -17 14 -18 12 -18 -35 0 -47 -2 -51 -27 -56 -21 -4 -37 4 -72 33 -61 50 -102 70 -146 70 -33 0 -35 -2 -35 -31z"></path></g></g><g fill="rgb(245,60,171)"><g><path d="M3796 4865 c-18 -21 -38 -35 -53 -35 -16 0 -39 -20 -78 -67 -53 -64 -55 -69 -55 -126 0 -73 11 -94 54 -103 27 -5 39 -1 55 15 12 12 27 21 34 21 7 0 61 -54 120 -120 60 -67 128 -131 153 -146 46 -27 46 -27 132 -14 48 7 103 16 122 21 19 5 49 9 66 9 28 0 33 -5 48 -44 32 -83 54 -82 121 3 22 28 41 47 43 42 5 -15 -16 -50 -60 -97 -22 -24 -35 -44 -28 -44 13 0 100 89 100 103 0 4 6 7 14 7 16 0 46 69 46 106 0 14 -8 38 -18 52 -10 15 -25 43 -32 62 -8 19 -19 38 -24 42 -16 11 -84 9 -91 -2 -5 -7 -48 -9 -131 -4 l-123 7 -10 -27 c-17 -42 -71 -32 -71 14 0 40 -10 60 -29 60 -24 0 -98 79 -107 113 -3 16 -12 31 -19 33 -22 9 -73 89 -77 119 -3 26 -7 30 -38 33 -30 2 -40 -3 -64 -33z"></path><path d="M2743 4804 c-19 -13 -28 -14 -60 -3 -37 12 -37 12 -75 -31 -37 -42 -85 -163 -76 -191 2 -7 20 5 40 27 21 21 40 35 44 31 4 -3 -1 -33 -10 -65 -20 -72 -21 -122 -3 -122 8 0 34 -10 58 -22 36 -19 57 -22 111 -20 l67 4 -15 31 c-12 25 -13 39 -5 60 6 15 14 27 18 27 5 0 9 65 11 145 l2 145 -42 -1 c-24 0 -53 -7 -65 -15z"></path></g></g><g fill="rgb(198,91,157)"><g><path d="M5291 5950 c-13 -11 -38 -20 -57 -20 l-34 0 0 -55 c0 -57 16 -101 49 -134 24 -24 84 -127 99 -168 6 -18 24 -52 40 -75 16 -24 46 -74 67 -113 55 -105 64 -112 83 -70 7 15 20 25 32 25 17 0 20 6 20 52 0 42 -5 57 -25 78 -15 15 -34 60 -50 113 -43 150 -110 290 -174 365 -23 26 -20 26 -50 2z"></path><path d="M4370 5685 c41 -42 37 -43 -25 -9 -40 23 -55 26 -106 21 -78 -7 -138 -37 -214 -108 -34 -33 -67 -59 -73 -59 -6 0 -27 7 -46 16 -32 16 -35 16 -63 -3 -15 -11 -55 -33 -88 -49 -96 -47 -95 -46 -95 -82 0 -23 8 -40 26 -57 25 -23 29 -23 157 -19 193 7 302 37 309 86 2 17 15 26 61 39 41 12 72 31 105 61 26 25 55 49 65 54 12 7 20 27 24 61 5 49 5 52 -25 67 -47 24 -49 20 -12 -19z"></path><path d="M3797 4908 c-59 -114 -48 -152 23 -78 40 41 50 42 50 2 0 -25 53 -107 75 -116 7 -2 16 -17 19 -33 9 -34 83 -113 107 -113 19 0 29 -20 29 -60 0 -29 3 -31 64 -45 30 -6 81 18 71 35 -9 14 15 23 29 11 7 -6 16 -8 20 -4 4 4 50 6 102 5 59 -2 100 1 108 7 16 14 46 4 46 -15 0 -8 5 -14 10 -14 13 0 13 66 0 91 -13 23 -72 26 -90 4 -20 -24 -62 5 -116 82 -26 37 -75 101 -108 141 -55 66 -63 72 -98 72 -36 0 -38 -1 -38 -33 0 -34 32 -89 89 -151 l26 -29 -30 8 c-16 4 -57 10 -89 14 -73 9 -75 13 -136 170 l-46 116 -39 3 -40 3 -38 -73z"></path><path d="M5610 2648 c0 -17 10 -45 23 -62 33 -44 72 -120 102 -197 14 -36 39 -91 56 -122 l31 -57 65 0 66 0 -21 23 c-22 23 -22 25 -7 92 19 82 14 114 -32 182 -19 28 -32 56 -29 62 4 6 21 15 39 20 30 9 31 9 6 10 -15 1 -37 10 -50 21 -22 19 -23 21 -6 31 9 5 15 14 12 20 -10 15 -72 10 -90 -7 -15 -16 -19 -16 -51 0 -19 9 -53 16 -74 16 -38 0 -40 -1 -40 -32z"></path></g></g><g fill="rgb(235,95,109)"><g><path d="M2340 6919 c-148 -8 -885 -29 -1035 -29 -52 0 -95 -4 -95 -9 0 -5 24 -23 54 -40 62 -36 111 -39 196 -15 30 9 93 20 140 25 47 5 107 12 133 15 l48 6 -6 -36 c-9 -45 6 -66 47 -66 22 0 33 7 46 30 25 43 61 40 124 -10 28 -22 59 -40 70 -40 11 0 48 16 82 35 64 35 90 42 114 26 9 -5 -9 -19 -58 -43 l-71 -35 38 -6 c21 -4 47 -4 59 -1 24 6 54 -19 54 -46 0 -10 -15 -27 -35 -39 -19 -11 -35 -25 -35 -30 0 -5 -22 -35 -49 -66 -44 -50 -49 -60 -40 -82 27 -71 106 -133 171 -133 31 0 47 11 139 103 57 56 133 123 169 148 36 26 101 80 145 120 103 94 195 175 219 192 12 9 15 16 8 21 -16 10 -479 14 -632 5z"></path><path d="M1695 6520 c-10 -11 -34 -23 -54 -26 -39 -7 -71 -29 -71 -49 0 -7 8 -16 18 -20 16 -6 16 -8 -3 -21 -17 -13 -18 -16 -5 -24 8 -5 29 -10 45 -10 17 0 39 -6 50 -13 11 -8 43 -19 70 -26 28 -6 79 -24 113 -38 l64 -27 34 40 c19 21 41 48 49 59 15 22 10 65 -8 65 -5 0 -33 11 -61 25 -28 13 -71 26 -95 29 -24 3 -61 17 -82 31 -46 30 -42 30 -64 5z"></path><path d="M4218 2118 c-9 -29 -20 -69 -26 -88 l-10 -35 -1 33 c-1 32 -2 33 -43 32 -24 -1 -70 1 -104 5 -112 14 -204 -30 -204 -97 0 -20 1 -21 13 -4 18 24 168 46 191 27 8 -7 32 -47 52 -89 19 -43 47 -92 60 -109 26 -34 60 -43 82 -21 9 9 18 8 39 -2 16 -7 31 -13 36 -12 17 4 14 -2 -98 -163 -49 -71 -125 -218 -125 -242 0 -29 18 -10 45 48 16 33 31 56 33 50 6 -19 27 -12 54 17 27 28 78 138 78 168 0 9 8 32 17 51 l17 36 17 -22 c30 -36 42 -27 37 29 -3 27 -2 52 1 56 3 3 7 43 8 87 1 45 5 125 8 178 l6 97 -38 6 c-21 4 -59 9 -84 12 l-46 6 -15 -54z"></path><path d="M5945 1744 c-6 -82 -11 -100 -36 -134 -38 -53 -37 -59 7 -21 35 31 54 33 54 5 0 -8 7 -17 15 -20 16 -6 65 -100 65 -124 0 -7 17 -32 38 -55 20 -23 48 -62 62 -85 14 -24 42 -60 63 -81 20 -20 37 -42 37 -49 0 -7 7 -10 16 -6 9 3 27 6 40 6 21 0 24 5 24 35 0 39 -34 114 -84 185 -42 60 -96 164 -96 184 0 10 -24 54 -53 99 -29 45 -60 93 -69 107 -8 14 -29 30 -46 36 l-30 12 -7 -94z"></path></g></g><g fill="rgb(158,99,182)"><g><path d="M4830 6577 c0 -4 19 -31 41 -60 34 -42 38 -53 25 -55 -10 -2 -25 3 -35 12 -16 14 -17 13 -13 -19 2 -19 8 -35 13 -35 5 0 9 -7 9 -16 0 -18 65 -128 86 -145 8 -6 14 -28 14 -48 0 -31 10 -49 54 -99 41 -48 52 -68 48 -87 -8 -43 7 -74 49 -102 22 -14 47 -39 55 -55 20 -39 54 -38 54 2 0 27 3 30 33 30 32 0 77 23 77 40 0 17 -158 196 -224 254 -37 32 -65 64 -63 70 5 17 97 45 152 46 l50 1 -35 29 c-41 34 -190 100 -227 100 -18 0 -44 20 -94 73 -38 39 -69 68 -69 64z"></path><path d="M3650 5849 c-14 -6 -37 -12 -52 -14 -33 -4 -76 -36 -97 -72 -12 -18 -31 -30 -71 -40 -88 -22 -146 -66 -181 -136 -45 -88 -48 -148 -12 -216 28 -54 53 -76 53 -48 0 8 18 50 40 94 28 56 57 97 100 137 l61 58 82 -4 c45 -2 95 -11 110 -19 l29 -16 -25 -16 c-60 -39 -72 -79 -42 -137 15 -29 62 -45 53 -18 -5 14 8 23 97 68 33 16 73 37 88 47 24 16 29 16 37 3 8 -13 10 -12 10 3 0 9 -4 17 -9 17 -5 0 -38 28 -73 63 -76 74 -154 116 -232 124 -31 3 -56 9 -56 13 0 4 11 15 24 23 13 9 44 34 70 56 46 40 45 49 -4 30z"></path></g></g><g fill="rgb(252,94,75)"><g><path d="M6033 6934 c-18 -8 -17 -48 1 -41 7 3 26 -3 42 -12 16 -10 78 -43 138 -75 131 -68 183 -103 257 -171 53 -49 94 -74 148 -90 23 -7 24 -6 19 39 -6 48 -41 101 -135 207 -24 26 -43 54 -43 63 0 9 -8 16 -19 16 -11 0 -28 12 -39 27 -15 21 -29 28 -59 29 -21 1 -96 4 -168 8 -71 3 -136 3 -142 0z"></path><path d="M1578 6399 c-41 -23 -5 -115 65 -168 46 -36 53 -38 86 -29 19 6 54 8 77 4 38 -5 45 -2 94 42 l53 48 -64 26 c-35 15 -86 33 -114 39 -27 7 -59 18 -70 24 -28 17 -107 26 -127 14z"></path><path d="M3363 3865 c-29 -25 -55 -54 -58 -65 -4 -11 6 -43 25 -79 16 -33 30 -64 30 -69 0 -13 -118 -55 -130 -47 -6 3 -10 23 -10 44 0 62 -20 70 -92 35 -34 -16 -72 -37 -85 -48 -23 -17 -23 -19 -7 -37 10 -11 34 -29 53 -41 20 -12 38 -23 39 -24 2 -1 -4 -16 -14 -33 -22 -38 -15 -48 78 -102 37 -22 68 -45 68 -52 0 -7 -7 -39 -15 -70 -18 -68 -20 -196 -4 -231 15 -32 63 -55 136 -64 67 -8 77 -25 43 -72 l-21 -30 26 -10 c34 -13 62 -13 125 1 28 6 54 8 57 5 3 -3 -8 -27 -25 -54 -42 -65 -44 -89 -9 -116 30 -22 95 -27 197 -16 l45 5 3 -37 c5 -57 59 -89 190 -112 30 -5 32 -4 32 24 0 23 -7 32 -35 46 -19 9 -35 23 -35 31 0 8 -4 11 -10 8 -5 -3 -10 -17 -10 -31 0 -27 -15 -32 -24 -8 -4 9 2 31 13 49 19 32 19 33 1 38 -12 3 -23 21 -31 48 -7 24 -19 53 -26 64 -13 18 -14 16 -7 -20 4 -22 13 -58 21 -79 7 -22 11 -41 8 -44 -6 -6 -35 62 -35 82 0 8 -4 18 -10 21 -5 3 -14 24 -20 46 -9 33 -8 45 5 65 18 28 13 44 -15 44 -23 0 -33 18 -71 128 -17 47 -36 94 -44 105 -13 19 -13 19 -24 -1 -10 -20 -13 -20 -60 -4 -41 13 -53 13 -65 2 -9 -7 -16 -19 -16 -26 0 -17 -51 -19 -68 -2 -17 17 -15 66 4 122 16 45 15 48 -4 69 -38 42 -43 64 -36 140 9 97 18 117 49 117 23 0 25 4 25 40 0 24 12 67 30 105 17 35 30 66 30 69 0 2 -24 18 -52 34 -29 16 -64 42 -77 56 -14 14 -27 26 -30 26 -4 0 -30 -20 -58 -45z"></path></g></g><g fill="rgb(170,106,129)"><g><path d="M3670 5413 c0 -5 -31 -7 -70 -5 l-70 4 0 -41 c0 -34 6 -46 36 -73 20 -18 42 -37 50 -41 8 -4 14 -17 14 -29 0 -11 17 -38 39 -59 32 -32 46 -39 78 -39 34 0 46 7 93 55 35 36 65 57 86 61 18 3 56 26 84 50 29 25 61 49 71 55 11 5 19 20 19 34 0 14 -1 25 -3 25 -1 0 -33 -9 -70 -19 -46 -14 -104 -21 -180 -22 -109 -2 -113 -1 -139 25 -27 27 -38 32 -38 19z"></path><path d="M4799 3555 c-48 -7 -90 -15 -95 -18 -5 -3 -76 -19 -159 -36 -82 -17 -180 -43 -217 -57 -60 -23 -68 -29 -68 -51 l0 -26 83 6 c129 10 258 42 386 97 147 62 170 63 223 11 l39 -40 -55 -53 c-42 -41 -58 -65 -70 -107 -9 -30 -16 -65 -16 -78 0 -13 -12 -31 -30 -45 -39 -29 -38 -38 6 -38 50 0 71 14 98 68 13 26 40 62 60 81 l36 35 26 -25 c53 -50 79 -108 80 -184 0 -38 6 -90 13 -114 15 -56 3 -71 -54 -71 -23 0 -58 -3 -76 -7 l-34 -7 35 -6 35 -5 -52 -33 c-29 -19 -70 -36 -92 -39 -29 -4 -55 -19 -94 -54 -31 -27 -64 -49 -75 -49 -27 0 -113 79 -173 159 -47 61 -104 109 -112 93 -3 -4 -8 -25 -11 -47 -13 -68 -62 -159 -115 -208 -64 -60 -216 -137 -271 -137 -40 0 -54 -15 -24 -27 8 -3 13 -12 9 -20 -3 -8 -10 -70 -16 -137 -5 -66 -16 -133 -24 -148 -16 -33 -11 -38 31 -38 23 0 42 9 64 30 17 17 34 30 39 30 4 0 52 52 107 115 54 63 106 117 114 121 34 13 171 26 253 24 55 -1 124 6 190 19 56 11 129 25 162 30 33 6 95 17 138 25 75 15 80 15 119 -5 22 -11 71 -26 109 -34 38 -7 77 -19 87 -26 47 -36 92 -85 92 -102 0 -56 52 -94 220 -163 74 -30 167 -45 138 -22 -19 15 -90 154 -108 213 -14 44 -51 113 -88 162 -25 33 -17 42 19 23 35 -19 0 37 -61 99 -31 31 -66 76 -77 101 -40 85 -40 83 32 130 36 23 71 40 80 37 21 -9 75 -98 75 -125 0 -14 9 -27 25 -34 16 -7 25 -19 25 -35 0 -17 6 -23 21 -23 22 0 22 1 15 139 -4 77 -13 161 -21 188 -32 114 -64 186 -99 222 -63 65 -42 71 29 9 51 -45 48 -23 -4 26 -17 17 -31 35 -31 42 0 6 -24 18 -52 27 -160 47 -211 60 -362 92 -185 39 -312 44 -477 20z"></path></g></g><g fill="rgb(236,70,85)"><g><path d="M5360 7000 c-146 -3 -258 -7 -250 -8 82 -13 187 -26 345 -42 50 -5 106 -12 126 -16 26 -4 39 -1 48 10 19 22 59 20 117 -7 104 -50 146 -53 364 -32 30 4 100 0 155 -8 114 -16 149 -10 120 23 -9 10 -42 34 -75 54 l-58 36 -314 -2 c-172 -1 -432 -5 -578 -8z"></path><path d="M5566 4474 c-14 -35 -6 -106 13 -122 17 -15 18 -24 11 -72 -5 -30 -9 -83 -9 -117 -1 -53 2 -64 21 -77 30 -21 108 -22 108 -1 0 8 -9 19 -20 25 -29 16 -25 25 19 38 52 16 104 15 146 -2 l35 -15 0 29 c0 41 -35 130 -71 179 -35 49 -106 97 -166 114 -33 8 -40 14 -31 24 8 10 4 13 -20 13 -18 0 -32 -6 -36 -16z"></path><path d="M4107 3908 c-29 -39 -47 -72 -58 -107 -7 -24 -7 -24 -8 -4 -1 27 -28 43 -71 43 -28 0 -34 -5 -52 -47 -12 -26 -26 -88 -32 -137 l-11 -90 -32 -7 c-43 -9 -63 -26 -63 -55 0 -27 21 -32 40 -9 14 17 56 20 65 5 3 -5 -2 -24 -12 -42 -9 -18 -18 -53 -20 -78 -1 -25 -5 -64 -9 -87 -7 -52 1 -54 78 -18 29 14 61 25 71 25 21 0 22 -25 3 -141 -12 -71 -20 -94 -48 -131 -37 -49 -71 -149 -71 -213 0 -52 31 -145 48 -145 7 0 33 29 58 64 l45 63 4 159 c4 151 6 162 35 224 16 36 44 82 62 103 33 37 32 38 -7 49 -15 4 22 57 140 195 98 116 98 121 19 258 -33 55 -63 113 -66 128 -6 23 -12 27 -46 27 -31 0 -42 -6 -62 -32z"></path><path d="M4337 2144 c-13 -13 -7 -24 12 -24 18 0 19 -6 15 -67 -3 -38 -6 -105 -8 -151 -3 -46 -9 -89 -16 -96 -6 -8 -8 -27 -5 -42 4 -16 8 -42 11 -58 9 -64 26 -105 60 -149 20 -26 42 -47 48 -47 7 0 20 16 29 35 9 19 20 35 25 35 4 0 24 -16 43 -36 47 -50 117 -94 150 -94 23 0 29 6 39 38 18 56 62 132 75 132 7 0 24 -18 39 -40 35 -53 205 -160 254 -160 31 0 66 91 67 170 1 78 13 85 71 40 43 -34 84 -100 84 -137 0 -31 24 -29 46 5 28 43 116 132 130 132 7 0 27 -12 44 -26 43 -37 73 -23 106 52 24 56 24 56 62 50 54 -9 144 10 165 35 20 25 22 65 3 98 -12 22 -11 27 20 58 35 34 40 59 28 120 -5 24 -14 33 -52 46 -26 10 -62 17 -79 17 -30 0 -33 -3 -33 -32 0 -17 7 -40 17 -50 15 -17 14 -18 -34 -18 -27 0 -72 7 -99 15 -69 21 -114 20 -114 -2 -1 -14 -5 -12 -21 9 -29 39 -81 68 -123 68 -35 0 -36 -1 -36 -35 0 -43 -7 -43 -88 -5 -35 17 -78 30 -96 30 -29 0 -33 -4 -49 -50 -23 -64 -56 -102 -136 -156 -61 -41 -66 -43 -73 -24 -5 15 -17 20 -41 20 -33 0 -35 2 -47 48 -18 73 -31 82 -114 81 -39 0 -108 -4 -153 -7 l-83 -7 0 44 c0 24 -6 52 -14 60 -7 9 -18 30 -23 46 -9 27 -14 30 -54 33 -25 2 -48 0 -52 -4z"></path></g></g><g fill="rgb(201,51,123)"><g><path d="M5630 4086 c0 -12 6 -30 14 -41 9 -13 15 -70 20 -170 9 -184 21 -286 36 -295 6 -4 13 -23 17 -43 4 -29 -1 -46 -27 -88 -28 -46 -30 -53 -16 -61 9 -5 49 -38 89 -74 39 -36 84 -72 99 -80 27 -14 28 -13 25 8 -1 14 4 23 16 26 14 3 17 -4 17 -37 0 -54 17 -62 18 -7 1 23 6 63 11 87 12 51 -1 86 -54 143 -37 41 -55 41 -47 1 8 -42 -7 -28 -34 33 -14 31 -38 74 -55 95 -40 49 -31 61 41 54 68 -6 70 -4 70 104 0 148 -31 229 -120 315 -39 38 -58 49 -85 50 -29 1 -35 -3 -35 -20z"></path><path d="M5820 2236 c0 -14 16 -52 35 -85 19 -32 35 -64 35 -70 0 -6 4 -11 8 -11 5 0 13 -12 19 -27 10 -27 11 -26 13 17 l2 45 18 -55 c11 -30 19 -72 19 -93 1 -36 3 -38 58 -63 32 -14 66 -23 75 -20 13 3 18 -2 18 -15 0 -26 19 -24 29 3 7 21 8 20 15 -8 4 -16 36 -97 72 -180 35 -83 69 -175 75 -205 6 -29 20 -74 31 -99 30 -67 48 -131 48 -167 0 -26 4 -33 19 -33 14 0 20 10 25 37 11 69 6 197 -14 334 -21 148 -41 214 -95 302 -19 32 -35 60 -35 63 0 2 9 4 20 4 30 0 100 -37 138 -73 24 -23 32 -27 32 -15 0 9 -4 20 -10 23 -5 3 -27 36 -49 74 l-40 67 -164 82 c-91 45 -195 102 -232 127 -46 31 -78 45 -101 45 -18 0 -36 5 -39 10 -11 18 -25 10 -25 -14z"></path></g></g><g fill="rgb(174,69,91)"><g><path d="M5531 5067 l-44 -10 8 -71 c4 -39 8 -147 9 -241 l1 -170 34 -72 c19 -40 37 -73 40 -73 15 0 81 100 124 187 29 57 58 99 77 113 33 24 60 68 60 100 0 36 -39 23 -85 -27 l-44 -48 -1 40 c-1 60 -17 124 -47 180 -48 92 -68 106 -132 92z"></path><path d="M3403 4792 c-39 -34 -148 -92 -172 -92 -33 0 -68 -44 -82 -104 -14 -66 -1 -148 32 -190 15 -19 49 -96 49 -111 0 -1 -24 0 -52 3 -50 5 -106 34 -107 56 -1 6 -13 22 -28 38 -23 24 -24 29 -12 44 22 27 39 86 39 138 l0 49 -68 -7 c-120 -12 -132 -16 -132 -42 0 -15 5 -22 13 -19 9 4 12 -28 12 -140 1 -134 2 -146 22 -164 22 -21 24 -32 39 -226 7 -95 13 -125 25 -125 5 0 46 34 90 75 99 93 126 112 141 97 17 -17 1 -41 -34 -50 -18 -4 -33 -14 -32 -20 1 -7 2 -29 3 -49 l1 -36 23 21 22 21 75 -19 c41 -11 90 -20 109 -20 l33 0 -26 35 c-35 46 -85 154 -93 199 -11 68 33 81 130 39 20 -9 40 -14 42 -11 10 9 -39 90 -77 128 -40 40 -46 52 -25 48 32 -7 16 55 -42 166 -34 63 -61 118 -61 121 0 4 13 4 29 0 18 -4 41 -1 59 9 28 15 81 10 113 -9 9 -6 10 -3 4 11 -4 10 -10 34 -13 52 -5 39 13 43 50 9 19 -18 27 -39 36 -106 7 -47 13 -86 15 -87 3 -3 147 -34 158 -34 3 0 5 16 5 35 -1 29 -5 35 -29 41 -49 10 -63 74 -27 124 l20 28 -45 41 c-55 50 -81 61 -148 61 -42 -1 -58 -6 -84 -28z"></path><path d="M4576 4538 c-14 -66 -13 -94 5 -119 18 -25 18 -27 -10 -86 -35 -73 -74 -118 -165 -192 -141 -113 -151 -116 -141 -34 4 31 14 67 22 80 26 40 7 37 -44 -5 -26 -22 -74 -54 -105 -72 -31 -17 -73 -49 -93 -72 -37 -40 -108 -177 -121 -231 l-7 -29 29 15 c42 22 64 7 64 -44 0 -75 48 -60 70 22 11 40 68 131 86 136 7 2 15 -8 18 -23 9 -33 55 -114 66 -114 4 0 10 30 13 66 3 46 11 75 27 96 12 16 30 48 41 71 10 23 19 34 19 25 0 -15 9 -18 44 -18 25 0 48 5 51 10 3 6 17 10 29 10 31 0 144 105 195 181 41 61 41 61 41 159 0 82 -4 104 -23 141 -21 40 -27 44 -65 47 -36 3 -42 0 -46 -20z"></path><path d="M4170 3014 c-43 -39 -70 -106 -70 -173 0 -43 -8 -57 -35 -62 -16 -4 -21 -13 -23 -57 -3 -52 -3 -52 -36 -52 -19 0 -39 -7 -46 -14 -18 -22 -8 -59 20 -73 14 -7 24 -17 23 -22 -6 -22 82 -30 129 -12 24 9 27 17 33 76 4 36 5 78 2 94 -4 19 2 43 17 72 13 24 27 55 31 68 4 13 28 50 53 82 36 47 51 59 74 59 15 0 28 4 28 8 0 18 -61 42 -109 42 -44 0 -56 -5 -91 -36z"></path><path d="M4100 2291 c-14 -9 -36 -26 -48 -39 -13 -12 -27 -20 -33 -16 -6 3 -18 -1 -27 -9 -9 -9 -36 -23 -59 -32 -48 -19 -55 -32 -20 -37 44 -6 32 -41 -37 -111 -37 -37 -66 -71 -66 -76 0 -23 20 -19 48 8 30 31 128 66 159 58 10 -3 30 -8 45 -11 15 -3 29 -15 33 -26 6 -19 7 -18 28 6 l23 26 -1 -58 c0 -33 4 -68 8 -78 7 -17 11 -13 29 25 12 24 25 46 29 49 5 3 13 28 19 55 21 94 32 117 55 109 11 -3 42 -9 69 -13 44 -5 51 -9 59 -36 5 -16 16 -38 24 -47 10 -11 14 -31 11 -58 -3 -35 -1 -40 18 -40 19 0 23 8 33 78 7 42 15 107 18 145 l6 67 -33 0 c-43 0 -170 -31 -170 -42 0 -4 -10 -8 -23 -8 -15 0 -42 20 -78 58 -61 66 -83 76 -119 53z"></path><path d="M6108 1588 c7 -7 12 -21 12 -31 0 -23 52 -124 96 -187 37 -53 87 -150 81 -156 -3 -3 -18 17 -35 43 -41 64 -77 106 -67 78 4 -11 29 -81 55 -155 52 -146 120 -301 126 -285 2 6 15 64 29 129 34 154 27 240 -34 379 -24 56 -41 61 -41 12 0 -19 -3 -35 -7 -35 -5 0 -22 22 -40 49 -18 27 -54 77 -80 110 -39 49 -53 61 -77 61 -23 0 -27 -3 -18 -12z"></path></g></g><g fill="rgb(86,82,159)"><g><path d="M4155 6498 c-7 -18 -19 -61 -25 -95 -14 -70 -3 -121 34 -161 l21 -24 -34 -27 c-21 -18 -30 -30 -22 -32 10 -4 11 -13 2 -44 -6 -22 -11 -52 -11 -67 0 -27 2 -28 54 -28 31 0 58 -5 63 -12 6 -7 13 -41 17 -76 6 -61 19 -102 34 -102 23 1 34 25 41 91 5 41 18 96 30 122 12 27 21 64 21 83 0 35 -34 94 -54 94 -16 0 -74 57 -90 88 -8 15 -17 50 -21 77 -10 82 -26 145 -37 145 -5 0 -15 -15 -23 -32z"></path><path d="M4830 6492 c0 -5 -15 -13 -32 -16 -18 -3 -59 -25 -90 -48 -54 -40 -58 -46 -58 -82 0 -37 8 -48 108 -150 95 -98 118 -116 210 -163 105 -54 149 -66 138 -38 -3 10 1 15 13 15 10 0 20 3 24 6 6 6 -39 67 -115 156 -27 33 -30 41 -20 62 9 20 7 27 -13 46 -28 26 -95 132 -96 152 -1 15 -69 75 -69 60z"></path><path d="M3465 5636 c-48 -21 -132 -119 -170 -198 -19 -40 -35 -81 -35 -91 0 -19 47 -117 56 -117 7 0 21 14 91 95 53 62 68 73 127 94 39 14 71 32 77 43 7 13 17 18 30 15 10 -3 22 0 27 7 4 7 30 30 59 51 29 21 50 42 47 47 -28 45 -242 82 -309 54z"></path><path d="M3917 5093 c-67 -83 -77 -103 -77 -145 1 -30 2 -32 15 -14 7 10 18 16 23 12 5 -3 28 -56 51 -118 57 -151 63 -159 142 -169 35 -4 98 -20 139 -34 41 -14 83 -28 94 -32 19 -6 0 22 -98 147 -57 72 -80 110 -69 110 11 0 115 -124 177 -213 36 -51 61 -74 99 -93 l50 -26 22 28 c21 26 22 27 33 8 10 -17 11 -16 12 13 0 17 -4 35 -10 38 -5 3 -14 25 -21 48 -14 54 -45 87 -139 144 -137 85 -203 144 -253 230 -25 43 -51 90 -58 106 -10 21 -19 27 -44 27 -28 0 -40 -9 -88 -67z"></path></g></g><g fill="rgb(152,72,99)"><g><path d="M5045 5919 c-3 -13 -7 -58 -8 -99 l-2 -75 37 -3 c20 -2 46 1 56 7 22 11 55 -7 72 -40 9 -16 5 -30 -20 -74 -41 -71 -72 -75 -126 -15 -53 58 -151 104 -235 108 -37 2 -75 0 -85 -6 -15 -8 -23 -3 -46 29 -36 50 -68 70 -122 76 -68 8 -129 -25 -166 -90 -26 -46 -28 -53 -14 -68 13 -15 13 -17 -6 -22 -13 -3 -18 -10 -14 -21 3 -9 2 -16 -4 -16 -5 0 -37 -24 -70 -54 -35 -31 -75 -57 -94 -61 -18 -4 -49 -14 -68 -22 -27 -11 -31 -16 -20 -23 12 -7 11 -12 -4 -29 -19 -21 -19 -21 9 -21 16 0 52 8 82 17 94 29 202 -5 306 -98 l57 -51 78 7 c62 5 85 12 118 36 l42 28 31 -85 c17 -47 31 -92 31 -100 0 -26 62 -16 101 16 l36 29 58 -82 c74 -105 125 -197 125 -227 0 -21 3 -22 44 -18 40 5 48 2 72 -23 15 -16 38 -29 50 -29 17 0 35 -19 73 -79 28 -44 56 -91 62 -105 8 -16 20 -26 33 -26 19 0 21 5 17 51 -2 39 0 50 9 44 10 -6 11 2 5 36 -9 45 -10 76 -5 139 3 35 -1 72 -15 123 -8 28 1 32 62 27 33 -2 23 26 -19 55 -30 20 -37 32 -47 85 -13 67 -61 133 -160 223 -29 26 -50 47 -47 47 21 0 93 -47 144 -95 33 -30 62 -55 66 -55 23 0 -38 139 -104 235 -17 25 -36 60 -42 78 -15 41 -75 144 -99 168 -10 10 -31 44 -47 76 -32 65 -59 84 -134 91 -43 4 -48 2 -53 -19z"></path><path d="M3333 4920 c-5 -27 -74 -100 -94 -100 -4 0 -10 16 -13 35 -8 40 -36 49 -36 11 0 -13 -17 -44 -37 -70 -34 -41 -42 -46 -79 -46 -62 0 -84 -29 -84 -109 0 -62 0 -63 25 -57 20 5 25 3 25 -11 0 -26 -22 -84 -42 -113 -26 -35 -22 -62 12 -95 16 -16 30 -32 30 -36 0 -4 13 -20 28 -36 16 -15 31 -35 34 -43 4 -12 9 -13 24 -2 11 6 25 15 31 18 11 5 69 -17 126 -47 24 -13 42 -2 27 16 -18 22 -48 84 -65 136 -9 26 -23 53 -31 59 -7 7 -20 34 -28 61 -13 43 -13 55 0 98 14 48 46 81 78 81 21 0 123 55 168 91 20 16 47 29 60 29 30 0 58 45 58 95 l0 37 -62 -4 c-35 -3 -70 -8 -79 -12 -11 -5 -19 1 -27 19 -16 35 -41 32 -49 -5z"></path><path d="M5137 2644 c-6 -6 -97 -25 -212 -45 -33 -5 -96 -17 -140 -27 -44 -9 -132 -17 -195 -18 -63 -1 -127 -4 -142 -7 -16 -3 -30 -1 -34 4 -3 5 -17 3 -32 -5 -15 -7 -38 -16 -52 -19 -15 -4 -64 -52 -125 -123 -55 -63 -101 -120 -103 -125 -2 -5 5 -9 15 -9 10 -1 42 -28 72 -60 54 -59 56 -60 108 -60 29 0 53 5 53 10 0 6 6 10 14 10 8 0 17 11 20 24 3 14 19 34 35 46 23 15 31 31 37 65 5 33 14 52 38 72 26 22 32 23 34 9 3 -12 15 -16 47 -16 39 0 47 4 71 35 19 25 30 33 38 25 5 -5 29 -10 52 -10 35 0 52 8 109 54 38 30 94 64 124 76 55 21 55 21 71 2 8 -11 25 -23 37 -26 12 -4 31 -22 43 -41 43 -70 120 -115 196 -115 40 0 44 2 44 25 0 35 20 32 77 -12 53 -40 62 -50 99 -106 22 -34 29 -38 62 -35 l37 3 0 49 c0 47 -2 50 -39 71 -41 23 -65 56 -66 90 0 19 -44 67 -92 104 -10 7 -49 19 -87 26 -38 8 -92 25 -120 39 -49 25 -82 32 -94 20z"></path><path d="M3761 1924 c-60 -65 -87 -116 -97 -184 -3 -25 -15 -81 -25 -125 -11 -44 -22 -124 -26 -178 -5 -89 -4 -99 14 -116 16 -15 19 -33 21 -117 3 -141 31 -386 46 -402 21 -20 185 236 227 353 14 40 27 122 40 250 23 236 23 225 0 225 -20 0 -31 -25 -31 -72 0 -15 -4 -30 -10 -33 -5 -3 -10 -15 -10 -26 0 -10 -26 -60 -57 -110 -65 -103 -65 -104 -85 36 -10 71 -9 105 5 222 10 76 25 170 33 209 9 40 14 84 12 100 -3 27 -4 27 -57 -32z"></path></g></g><g fill="rgb(129,44,127)"><g><path d="M4785 6098 c-27 -22 -77 -59 -110 -81 -129 -87 -185 -149 -185 -204 0 -37 -1 -37 35 -23 19 7 35 6 59 -4 35 -15 96 -81 96 -106 1 -8 6 -25 13 -38 l13 -23 12 25 c29 65 97 71 207 17 70 -35 112 -78 161 -166 l33 -60 -2 55 c-2 47 0 55 15 52 32 -5 54 16 88 83 l34 67 -19 36 c-11 20 -35 45 -53 55 -32 19 -35 19 -69 3 -20 -9 -40 -13 -44 -9 -8 8 3 118 13 128 8 8 71 -16 94 -36 18 -17 54 -26 54 -15 0 18 -48 79 -75 96 -18 11 -40 30 -48 43 -8 12 -62 46 -121 75 -58 30 -106 58 -106 63 0 22 -49 5 -95 -33z"></path><path d="M3747 5078 c-14 -18 -39 -60 -57 -93 l-33 -60 -66 -1 c-37 0 -77 -7 -91 -15 l-25 -14 23 -3 c27 -4 27 -4 -3 -56 l-25 -43 39 -7 c27 -4 55 -20 91 -53 l53 -47 47 54 c27 30 56 55 65 55 11 0 36 35 72 100 54 97 55 100 40 130 -8 16 -19 42 -25 58 -10 22 -18 27 -46 27 -28 0 -40 -7 -59 -32z"></path></g></g><g fill="rgb(77,57,127)"><g><path d="M4383 6726 c-61 -20 -107 -51 -151 -104 -65 -78 -76 -107 -64 -166 6 -28 14 -73 17 -101 4 -27 13 -62 21 -77 16 -31 74 -88 90 -88 5 0 21 -14 33 -31 l23 -31 -22 -51 c-12 -29 -26 -85 -31 -126 -4 -41 -14 -78 -20 -81 -14 -9 -5 -41 28 -98 26 -45 80 -112 92 -112 3 0 17 20 30 45 13 25 38 54 56 65 18 11 36 32 39 46 8 31 82 103 161 157 33 22 87 61 120 87 33 26 67 49 75 52 11 4 -18 38 -94 116 -59 61 -107 115 -105 120 8 20 115 92 146 98 18 3 33 12 33 19 0 16 -115 124 -194 182 -124 91 -186 109 -283 79z"></path><path d="M4045 5377 c-16 -11 -49 -38 -72 -58 -24 -20 -56 -39 -72 -42 -17 -4 -35 -16 -42 -29 -7 -13 -27 -41 -46 -64 -26 -32 -33 -50 -33 -84 0 -36 2 -41 14 -31 12 10 17 8 25 -8 6 -11 11 -26 11 -33 0 -17 49 -77 50 -61 0 6 28 46 62 88 58 73 62 76 73 56 17 -32 25 -15 25 54 0 50 5 68 25 95 25 33 30 71 17 117 l-7 22 -30 -22z"></path><path d="M2835 5361 c-47 -29 -92 -82 -117 -136 -19 -42 -22 -70 -25 -178 -1 -71 2 -140 8 -154 9 -23 5 -30 -37 -68 l-46 -43 33 -10 c70 -21 85 -21 117 -2 18 11 37 20 41 20 5 0 7 -50 4 -115 -6 -112 -5 -115 15 -115 13 0 32 15 51 43 62 89 95 117 143 123 25 4 51 10 58 14 9 6 16 59 22 171 l9 162 -39 36 c-21 20 -47 47 -58 60 l-19 23 67 -7 c80 -9 93 4 59 59 -67 108 -208 166 -286 117z"></path><path d="M4487 4715 c-26 -19 -43 -36 -38 -39 5 -3 14 -26 20 -51 6 -24 19 -49 30 -54 10 -6 29 -36 41 -68 13 -32 28 -64 33 -70 15 -20 27 -5 27 35 0 43 13 68 29 58 7 -5 11 3 11 21 0 28 0 28 56 24 l57 -3 -6 68 c-6 74 -15 87 -77 104 -69 19 -131 11 -183 -25z"></path></g></g><g fill="rgb(128,41,78)"><g><path d="M4790 5395 c-39 -48 -95 -79 -149 -86 -35 -4 -61 -2 -70 5 -11 9 -13 5 -8 -24 3 -19 15 -62 26 -94 24 -69 26 -125 6 -216 -24 -108 -20 -144 22 -212 20 -33 49 -66 64 -73 19 -10 29 -25 33 -51 4 -20 5 -39 1 -42 -3 -3 -27 2 -53 11 -26 9 -50 17 -54 17 -5 0 -8 -17 -8 -39 0 -27 7 -46 26 -66 39 -42 54 -86 54 -159 0 -58 -4 -69 -41 -125 -51 -76 -164 -181 -195 -181 -12 0 -26 -4 -29 -10 -10 -15 -35 -12 -35 5 0 10 -10 15 -34 15 -27 0 -35 -5 -40 -23 -3 -12 -20 -44 -37 -70 -26 -39 -33 -62 -37 -116 -4 -66 -3 -71 38 -139 l42 -71 -79 -93 c-43 -51 -93 -111 -110 -133 -31 -41 -93 -146 -93 -159 0 -3 18 3 40 14 23 11 45 18 50 15 6 -3 25 5 43 19 42 32 98 56 134 57 24 0 25 2 8 8 -15 6 -7 12 45 32 60 23 90 49 57 49 -22 0 -29 25 -36 125 -4 52 -14 104 -24 124 l-17 34 49 53 c30 33 56 73 66 104 9 27 29 63 45 80 24 26 35 30 79 30 39 0 56 5 73 22 12 12 38 27 57 34 36 12 36 12 47 94 8 68 14 85 35 101 13 10 34 19 46 19 12 0 24 8 28 19 3 10 40 53 83 95 l77 76 27 -57 c16 -32 28 -64 28 -70 0 -8 13 -13 32 -13 23 0 42 10 69 36 l36 35 6 -30 c5 -24 13 -31 40 -36 29 -6 43 -19 83 -78 27 -39 55 -84 62 -101 7 -16 22 -36 33 -44 12 -8 27 -29 34 -46 8 -17 24 -46 38 -63 22 -30 24 -40 19 -108 l-5 -75 26 0 c17 0 32 -9 43 -26 16 -23 16 -35 6 -113 -7 -49 -12 -126 -12 -173 l0 -84 52 -20 c29 -10 55 -20 59 -22 11 -5 56 81 62 121 6 37 -8 97 -25 108 -14 9 -28 135 -33 294 -2 77 -4 143 -5 148 0 4 -19 25 -41 47 l-42 40 13 112 c13 111 13 111 -10 130 -18 15 -21 24 -16 52 6 33 3 41 -75 215 -11 24 -43 79 -71 122 -37 59 -55 79 -72 79 -13 0 -40 19 -65 44 l-44 45 -26 -20 -26 -21 -6 30 c-13 61 -160 289 -202 311 -20 11 -27 8 -66 -29 l-43 -41 -32 93 c-18 51 -39 106 -47 121 -14 26 -17 27 -29 12z"></path><path d="M3515 5261 c-65 -32 -83 -46 -133 -104 -29 -34 -32 -44 -28 -80 3 -23 0 -67 -7 -97 -12 -50 -12 -58 6 -87 22 -38 27 -39 91 -17 26 9 55 14 66 11 11 -3 36 -1 57 4 23 5 42 4 47 -1 22 -22 39 -5 77 77 22 48 51 102 65 120 27 36 35 105 10 84 -26 -22 -90 31 -105 85 -11 43 -66 44 -146 5z"></path><path d="M5607 2321 c6 -44 -10 -62 -29 -31 -16 25 -28 26 -28 2 0 -24 -40 -42 -90 -42 l-40 0 0 -56 0 -56 59 4 58 4 -7 -25 c-3 -15 -20 -35 -38 -46 -17 -11 -31 -25 -32 -32 0 -6 -6 -13 -12 -16 -9 -3 -6 -10 9 -21 11 -9 35 -38 52 -66 40 -65 61 -66 61 -4 0 40 2 45 18 39 46 -18 156 -35 194 -29 71 11 80 31 35 82 -24 26 -19 27 30 7 19 -8 47 -15 60 -15 24 0 25 2 21 48 -3 32 -18 71 -46 118 -44 75 -58 85 -204 138 -26 10 -50 22 -53 27 -14 21 -23 6 -18 -30z"></path><path d="M4865 2080 c-43 -34 -51 -36 -71 -15 -9 8 -33 15 -55 15 -34 0 -39 -3 -39 -23 0 -13 -11 -33 -25 -45 -14 -12 -25 -31 -25 -42 0 -18 7 -20 53 -20 63 0 79 -13 97 -80 15 -58 28 -74 46 -59 25 21 44 2 44 -42 l0 -42 23 20 c12 11 51 39 87 63 79 52 117 86 136 122 19 37 18 43 -13 57 -51 23 -131 83 -136 102 -8 32 -76 26 -122 -11z"></path></g></g><g fill="rgb(101,34,80)"><g><path d="M3874 5270 c-11 -4 -51 -41 -88 -81 -51 -55 -80 -99 -117 -176 -27 -56 -49 -109 -49 -118 0 -10 10 -15 29 -15 26 0 34 8 71 75 23 42 52 88 66 104 13 16 24 35 24 41 0 7 15 31 34 54 18 23 43 60 55 84 22 44 18 50 -25 32z"></path><path d="M4925 4441 c-49 -49 -93 -98 -99 -110 -5 -12 -18 -21 -30 -21 -12 0 -32 -9 -45 -19 -21 -16 -27 -33 -35 -101 -11 -82 -11 -82 -47 -94 -19 -7 -46 -23 -58 -35 -17 -17 -29 -21 -51 -16 -62 14 -120 -36 -150 -128 -7 -22 -38 -66 -71 -102 l-60 -64 28 -52 c21 -41 28 -72 34 -143 9 -134 11 -136 95 -115 37 10 44 15 44 35 0 13 -4 24 -10 24 -6 0 -10 29 -10 68 0 60 3 72 34 115 19 27 38 61 41 75 10 46 30 65 54 53 11 -6 41 -11 68 -11 l48 0 54 80 c50 73 56 79 71 65 41 -37 125 -8 170 58 14 20 27 37 30 37 3 0 46 -38 95 -85 105 -99 133 -107 206 -56 24 16 50 26 61 23 16 -4 58 -75 58 -98 0 -4 9 -26 19 -48 32 -66 90 -220 97 -254 4 -21 12 -32 24 -32 18 0 20 9 36 227 8 95 -7 133 -51 133 -20 0 -25 5 -25 26 0 14 8 39 17 55 17 29 17 29 -25 88 -23 33 -42 64 -42 69 0 13 -46 72 -52 67 -3 -3 -11 9 -19 27 -7 18 -35 65 -62 105 -41 58 -56 72 -83 78 -27 5 -35 12 -42 38 -13 49 -45 48 -98 -4 -26 -25 -44 -37 -44 -29 0 21 -54 133 -71 147 -12 10 -31 -4 -104 -76z"></path><path d="M4800 2369 c-24 -11 -62 -34 -85 -52 -22 -18 -59 -45 -81 -59 -39 -25 -42 -26 -47 -8 -4 15 -16 20 -63 22 -50 3 -61 6 -69 26 -11 24 -35 30 -35 8 0 -8 -13 -24 -29 -36 -17 -11 -33 -31 -37 -43 -8 -27 -22 -37 -51 -37 -14 0 -23 -6 -23 -16 0 -14 8 -15 48 -9 26 4 71 13 101 21 30 8 56 12 58 10 6 -5 -28 -220 -38 -238 -15 -27 -11 -40 10 -33 11 3 63 10 116 14 77 7 100 12 115 29 11 11 29 27 41 36 19 13 20 18 9 31 -18 22 3 19 30 -5 38 -33 57 -28 143 33 27 19 47 16 47 -7 0 -23 161 -123 180 -111 5 3 15 24 21 45 7 22 13 40 14 40 3 0 81 -35 183 -81 23 -10 47 -19 52 -19 15 0 12 37 -6 71 -20 40 -13 46 29 20 41 -25 57 -27 57 -6 0 8 4 15 9 15 19 0 70 51 65 64 -3 8 -1 17 5 20 9 6 7 42 -4 74 -6 16 -35 15 -59 -3 -31 -24 -56 -19 -56 10 0 16 6 25 15 25 20 0 19 26 -1 34 -31 12 -66 6 -83 -16 l-18 -21 -104 65 c-107 67 -142 78 -262 83 -27 2 -54 8 -60 14 -17 17 -87 12 -137 -10z"></path></g></g><g fill="rgb(70,34,81)"><g><path d="M3583 5493 c-8 -12 -42 -31 -80 -45 -58 -20 -73 -31 -126 -93 -33 -38 -65 -73 -71 -77 -7 -5 -1 -36 18 -95 16 -48 31 -95 33 -103 4 -12 9 -9 24 10 78 98 185 170 252 170 29 0 36 14 13 27 -25 14 -86 73 -86 83 0 17 64 11 103 -9 l37 -19 0 29 c0 17 -9 47 -19 68 -13 25 -16 42 -10 52 15 24 11 27 -32 26 -31 -2 -45 -8 -56 -24z"></path><path d="M3154 5239 c3 -13 9 -37 12 -54 5 -28 4 -27 -17 10 -28 52 -29 53 -40 33 -7 -13 -15 -15 -44 -7 -32 9 -122 5 -133 -6 -8 -8 23 -48 87 -113 54 -55 72 -88 56 -104 -3 -3 -7 -53 -8 -112 -2 -119 -3 -120 -75 -130 -49 -7 -69 -24 -142 -122 -33 -44 -63 -124 -47 -124 3 0 28 14 55 31 33 20 67 32 106 36 l56 6 0 47 c0 37 5 51 25 70 28 27 28 27 48 -20 l15 -35 11 30 c7 16 32 54 57 83 51 63 53 80 28 230 -13 75 -14 100 -5 115 10 15 8 31 -9 83 -12 35 -26 67 -32 70 -8 5 -9 -1 -4 -17z"></path><path d="M4975 4040 c-21 -28 -50 -57 -66 -65 -27 -15 -31 -14 -70 15 l-42 30 -31 -53 c-57 -93 -91 -136 -107 -137 -9 0 -36 9 -60 20 l-44 20 -22 -27 c-12 -15 -25 -40 -28 -54 -4 -15 -22 -49 -41 -76 -33 -47 -34 -50 -34 -145 0 -62 4 -98 11 -98 5 0 7 -4 4 -10 -3 -5 2 -10 13 -10 22 0 194 35 272 55 75 20 197 35 281 35 73 0 331 -50 483 -94 118 -35 122 -34 120 12 -1 60 -55 221 -115 348 -10 22 -19 44 -19 48 0 4 -9 27 -20 50 -29 65 -85 74 -157 26 -24 -16 -47 -30 -51 -30 -4 0 -52 43 -107 95 -55 52 -107 95 -117 95 -9 0 -33 -23 -53 -50z"></path><path d="M4934 2579 c-27 -11 -81 -45 -119 -75 -70 -56 -97 -64 -103 -29 -8 41 -22 38 -75 -18 -29 -31 -59 -57 -65 -57 -15 0 -15 25 -2 51 13 24 9 24 -39 -1 -76 -38 -99 -66 -106 -125 -9 -72 1 -85 71 -85 49 0 55 -3 64 -25 5 -14 17 -25 26 -25 19 0 97 47 165 100 25 20 67 44 93 54 47 18 48 18 71 -4 20 -19 28 -21 54 -12 20 7 42 8 63 1 18 -5 45 -9 60 -9 26 0 107 -44 205 -111 50 -35 77 -36 106 -6 19 18 32 21 71 19 96 -6 128 28 87 93 -42 69 -117 125 -199 149 -58 17 -55 21 -37 -41 18 -63 -126 13 -175 92 -12 19 -33 38 -46 41 -14 4 -29 15 -35 25 -13 25 -68 24 -135 -2z"></path></g></g><g fill="rgb(59,32,54)"><g><path d="M4995 3330 c-29 -12 -75 -64 -104 -118 -19 -33 -35 -50 -57 -57 -62 -20 -101 -78 -68 -102 20 -15 55 1 93 40 l23 26 25 -30 25 -29 -40 -61 c-42 -64 -44 -85 -11 -115 17 -16 25 -16 65 -6 24 7 56 12 70 12 22 0 25 -2 14 -15 -8 -9 -9 -15 -2 -15 6 0 14 5 18 11 4 7 24 9 51 6 36 -4 49 -1 71 18 l26 22 -16 64 c-9 35 -19 73 -23 84 -3 11 -1 26 4 34 8 12 16 9 46 -17 45 -40 55 -40 55 -2 0 36 -38 80 -69 80 -14 0 -29 17 -51 59 -49 91 -99 130 -145 111z"></path><path d="M5593 3028 c-90 -51 -123 -74 -123 -84 0 -7 9 -40 20 -75 22 -73 76 -148 137 -195 53 -40 197 -97 224 -89 20 7 20 7 2 21 -10 7 -26 14 -35 14 -29 0 -20 19 13 27 39 11 42 27 6 31 -27 3 -28 5 -22 44 4 22 4 64 0 93 -5 42 -11 54 -31 63 -14 7 -24 20 -24 33 0 27 -46 105 -73 124 -29 20 -47 19 -94 -7z"></path><path d="M6060 2066 c0 -2 14 -34 31 -72 27 -60 31 -76 27 -140 -2 -40 -6 -76 -10 -79 -4 -4 -35 7 -69 24 -34 17 -64 29 -66 27 -13 -12 99 -191 190 -304 32 -41 78 -104 102 -141 62 -96 71 -102 84 -54 23 82 3 172 -84 378 -34 83 -71 177 -81 210 -13 44 -30 73 -63 108 -39 41 -61 56 -61 43z"></path><path d="M3812 1980 c-24 -26 -44 -113 -67 -289 -19 -145 -20 -143 73 -138 l62 3 0 -48 c0 -46 1 -48 28 -48 28 0 52 33 52 72 0 9 6 42 14 72 8 30 12 64 9 75 -3 12 0 28 7 36 19 23 -16 19 -77 -9 l-52 -25 -6 43 c-11 72 4 105 73 161 59 47 61 50 40 58 -13 5 -49 6 -81 2 -57 -6 -58 -6 -47 16 18 32 -3 46 -28 19z"></path></g></g><g fill="rgb(34,22,45)"><g><path d="M4156 5444 c-22 -8 -54 -26 -73 -40 -27 -21 -33 -32 -31 -58 1 -20 -6 -43 -20 -61 -29 -40 -33 -145 -7 -196 82 -160 138 -219 305 -322 42 -26 89 -60 105 -77 16 -16 34 -30 40 -30 7 0 31 14 53 30 46 33 68 36 127 15 21 -8 41 -12 43 -11 5 5 -34 81 -66 129 l-25 38 21 102 c22 106 20 175 -8 270 -22 76 -139 176 -241 208 -71 22 -168 24 -223 3z"></path><path d="M4238 2971 c-25 -32 -49 -69 -53 -82 -4 -13 -19 -46 -33 -72 -21 -42 -24 -56 -18 -107 l7 -60 -41 0 c-50 0 -50 -20 -1 -34 40 -11 35 -28 -11 -41 -50 -14 -55 -22 -24 -36 23 -11 37 -7 131 39 127 62 194 121 234 206 28 60 54 154 45 167 -10 18 -138 79 -163 79 -22 0 -37 -12 -73 -59z"></path><path d="M3736 1613 c-12 -12 -6 -183 9 -260 8 -43 15 -94 15 -113 0 -59 14 -65 40 -18 13 24 50 84 82 135 57 90 76 152 43 139 -18 -6 -20 22 -6 70 15 52 0 62 -54 36 -56 -27 -79 -28 -104 -3 -11 11 -22 17 -25 14z"></path></g></g></svg>
